  0
SECTION
  2
BLOCKS
  0
ENDSEC
  0
SECTION
  2
ENTITIES
  0
LINE
  8
0
 10
71.2856
 20
-196.876
 11
105
 21
-181.865
  0
LINE
  8
0
 10
105
 20
-181.865
 11
140.517
 21
-156.06
  0
LINE
  8
0
 10
140.517
 20
-156.06
 11
169.894
 21
-123.435
  0
LINE
  8
0
 10
169.894
 20
-123.435
 11
191.845
 21
-85.4147
  0
LINE
  8
0
 10
191.845
 20
-85.4147
 11
205.411
 21
-43.6615
  0
LINE
  8
0
 10
205.411
 20
-43.6615
 11
210
 21
0
  0
LINE
  8
0
 10
210
 20
0
 11
205.411
 21
43.6615
  0
LINE
  8
0
 10
205.411
 20
43.6615
 11
191.845
 21
85.4147
  0
LINE
  8
0
 10
191.845
 20
85.4147
 11
169.894
 21
123.435
  0
LINE
  8
0
 10
169.894
 20
123.435
 11
140.517
 21
156.06
  0
LINE
  8
0
 10
140.517
 20
156.06
 11
105
 21
181.865
  0
LINE
  8
0
 10
105
 20
181.865
 11
71.2856
 21
196.876
  0
LINE
  8
0
 10
71.2856
 20
196.876
 11
69.2407
 21
197.311
  0
LINE
  8
0
 10
69.2407
 20
197.311
 11
67.1501
 21
197.311
  0
LINE
  8
0
 10
67.1501
 20
197.311
 11
65.1053
 21
196.876
  0
LINE
  8
0
 10
65.1053
 20
196.876
 11
63.1954
 21
196.026
  0
LINE
  8
0
 10
63.1954
 20
196.026
 11
61.5041
 21
194.797
  0
LINE
  8
0
 10
61.5041
 20
194.797
 11
60.1052
 21
193.243
  0
LINE
  8
0
 10
60.1052
 20
193.243
 11
59.06
 21
191.433
  0
LINE
  8
0
 10
59.06
 20
191.433
 11
-1.55093
 21
24.9057
  0
LINE
  8
0
 10
-1.55093
 20
24.9057
 11
-2.59622
 21
23.0952
  0
LINE
  8
0
 10
-2.59622
 20
23.0952
 11
-3.99509
 21
21.5416
  0
LINE
  8
0
 10
-3.99509
 20
21.5416
 11
-5.68639
 21
20.3128
  0
LINE
  8
0
 10
-5.68639
 20
20.3128
 11
-7.59622
 21
19.4625
  0
LINE
  8
0
 10
-7.59622
 20
19.4625
 11
-8.8882
 21
19.1879
  0
LINE
  8
0
 10
-8.8882
 20
19.1879
 11
-10.7078
 21
18.5467
  0
LINE
  8
0
 10
-10.7078
 20
18.5467
 11
-12.1731
 21
17.2913
  0
LINE
  8
0
 10
-12.1731
 20
17.2913
 11
-13.0858
 21
15.5915
  0
LINE
  8
0
 10
-13.0858
 20
15.5915
 11
-13.3229
 21
13.6768
  0
LINE
  8
0
 10
-13.3229
 20
13.6768
 11
-12.8523
 21
11.8057
  0
LINE
  8
0
 10
-12.8523
 20
11.8057
 11
-11.7376
 21
10.231
  0
LINE
  8
0
 10
-11.7376
 20
10.231
 11
-11.4821
 21
9.9472
  0
LINE
  8
0
 10
-11.4821
 20
9.9472
 11
-10.4368
 21
8.13672
  0
LINE
  8
0
 10
-10.4368
 20
8.13672
 11
-9.7908
 21
6.14848
  0
LINE
  8
0
 10
-9.7908
 20
6.14848
 11
-9.57227
 21
4.06937
  0
LINE
  8
0
 10
-9.57227
 20
4.06937
 11
-10
 21
0
  0
LINE
  8
0
 10
-10
 20
0
 11
-9.57227
 21
-4.06937
  0
LINE
  8
0
 10
-9.57227
 20
-4.06937
 11
-9.7908
 21
-6.14848
  0
LINE
  8
0
 10
-9.7908
 20
-6.14848
 11
-10.4368
 21
-8.13672
  0
LINE
  8
0
 10
-10.4368
 20
-8.13672
 11
-11.4821
 21
-9.9472
  0
LINE
  8
0
 10
-11.4821
 20
-9.9472
 11
-11.7376
 21
-10.231
  0
LINE
  8
0
 10
-11.7376
 20
-10.231
 11
-12.8523
 21
-11.8057
  0
LINE
  8
0
 10
-12.8523
 20
-11.8057
 11
-13.3229
 21
-13.6768
  0
LINE
  8
0
 10
-13.3229
 20
-13.6768
 11
-13.0858
 21
-15.5915
  0
LINE
  8
0
 10
-13.0858
 20
-15.5915
 11
-12.1731
 21
-17.2913
  0
LINE
  8
0
 10
-12.1731
 20
-17.2913
 11
-10.7079
 21
-18.5466
  0
LINE
  8
0
 10
-10.7079
 20
-18.5466
 11
-8.8882
 21
-19.1879
  0
LINE
  8
0
 10
-8.8882
 20
-19.1879
 11
-7.59622
 21
-19.4625
  0
LINE
  8
0
 10
-7.59622
 20
-19.4625
 11
-5.68639
 21
-20.3128
  0
LINE
  8
0
 10
-5.68639
 20
-20.3128
 11
-3.99509
 21
-21.5416
  0
LINE
  8
0
 10
-3.99509
 20
-21.5416
 11
-2.59622
 21
-23.0952
  0
LINE
  8
0
 10
-2.59622
 20
-23.0952
 11
-1.55093
 21
-24.9057
  0
LINE
  8
0
 10
-1.55093
 20
-24.9057
 11
59.06
 21
-191.433
  0
LINE
  8
0
 10
59.06
 20
-191.433
 11
60.1052
 21
-193.243
  0
LINE
  8
0
 10
60.1052
 20
-193.243
 11
61.5041
 21
-194.797
  0
LINE
  8
0
 10
61.5041
 20
-194.797
 11
63.1954
 21
-196.026
  0
LINE
  8
0
 10
63.1954
 20
-196.026
 11
65.1052
 21
-196.876
  0
LINE
  8
0
 10
65.1052
 20
-196.876
 11
67.1501
 21
-197.311
  0
LINE
  8
0
 10
67.1501
 20
-197.311
 11
69.2407
 21
-197.311
  0
LINE
  8
0
 10
69.2407
 20
-197.311
 11
71.2856
 21
-196.876
  0
LINE
  8
0
 10
18.5805
 20
14.8094
 11
16.5356
 21
15.244
  0
LINE
  8
0
 10
16.5356
 20
15.244
 11
14.6258
 21
16.0943
  0
LINE
  8
0
 10
14.6258
 20
16.0943
 11
12.9345
 21
17.3232
  0
LINE
  8
0
 10
12.9345
 20
17.3232
 11
11.5356
 21
18.8768
  0
LINE
  8
0
 10
11.5356
 20
18.8768
 11
10.4903
 21
20.6872
  0
LINE
  8
0
 10
10.4903
 20
20.6872
 11
9.84431
 21
22.6755
  0
LINE
  8
0
 10
9.84431
 20
22.6755
 11
9.62578
 21
24.7546
  0
LINE
  8
0
 10
9.62578
 20
24.7546
 11
9.84431
 21
26.8337
  0
LINE
  8
0
 10
9.84431
 20
26.8337
 11
10.4903
 21
28.8219
  0
LINE
  8
0
 10
10.4903
 20
28.8219
 11
64.7856
 21
177.997
  0
LINE
  8
0
 10
64.7856
 20
177.997
 11
65.8309
 21
179.808
  0
LINE
  8
0
 10
65.8309
 20
179.808
 11
67.2298
 21
181.361
  0
LINE
  8
0
 10
67.2298
 20
181.361
 11
68.9211
 21
182.59
  0
LINE
  8
0
 10
68.9211
 20
182.59
 11
70.8309
 21
183.44
  0
LINE
  8
0
 10
70.8309
 20
183.44
 11
72.8758
 21
183.875
  0
LINE
  8
0
 10
72.8758
 20
183.875
 11
74.9664
 21
183.875
  0
LINE
  8
0
 10
74.9664
 20
183.875
 11
77.0112
 21
183.44
  0
LINE
  8
0
 10
77.0112
 20
183.44
 11
100
 21
173.205
  0
LINE
  8
0
 10
100
 20
173.205
 11
133.826
 21
148.629
  0
LINE
  8
0
 10
133.826
 20
148.629
 11
161.803
 21
117.557
  0
LINE
  8
0
 10
161.803
 20
117.557
 11
176.293
 21
92.4608
  0
LINE
  8
0
 10
176.293
 20
92.4608
 11
176.939
 21
90.4726
  0
LINE
  8
0
 10
176.939
 20
90.4726
 11
177.157
 21
88.3935
  0
LINE
  8
0
 10
177.157
 20
88.3935
 11
176.939
 21
86.3143
  0
LINE
  8
0
 10
176.939
 20
86.3143
 11
176.293
 21
84.3261
  0
LINE
  8
0
 10
176.293
 20
84.3261
 11
175.247
 21
82.5156
  0
LINE
  8
0
 10
175.247
 20
82.5156
 11
173.849
 21
80.962
  0
LINE
  8
0
 10
173.849
 20
80.962
 11
172.157
 21
79.7332
  0
LINE
  8
0
 10
172.157
 20
79.7332
 11
170.247
 21
78.8829
  0
LINE
  8
0
 10
170.247
 20
78.8829
 11
22.7159
 21
15.244
  0
LINE
  8
0
 10
22.7159
 20
15.244
 11
20.6711
 21
14.8094
  0
LINE
  8
0
 10
20.6711
 20
14.8094
 11
18.5805
 21
14.8094
  0
LINE
  8
0
 10
177.856
 20
-70.827
 11
175.812
 21
-70.3924
  0
LINE
  8
0
 10
175.812
 20
-70.3924
 11
34.6717
 21
-9.51056
  0
LINE
  8
0
 10
34.6717
 20
-9.51056
 11
32.7618
 21
-8.66025
  0
LINE
  8
0
 10
32.7618
 20
-8.66025
 11
31.0705
 21
-7.43144
  0
LINE
  8
0
 10
31.0705
 20
-7.43144
 11
29.6717
 21
-5.87784
  0
LINE
  8
0
 10
29.6717
 20
-5.87784
 11
28.6264
 21
-4.06735
  0
LINE
  8
0
 10
28.6264
 20
-4.06735
 11
27.9804
 21
-2.07912
  0
LINE
  8
0
 10
27.9804
 20
-2.07912
 11
27.7618
 21
0
  0
LINE
  8
0
 10
27.7618
 20
0
 11
27.9804
 21
2.07912
  0
LINE
  8
0
 10
27.9804
 20
2.07912
 11
28.6264
 21
4.06735
  0
LINE
  8
0
 10
28.6264
 20
4.06735
 11
29.6717
 21
5.87784
  0
LINE
  8
0
 10
29.6717
 20
5.87784
 11
31.0705
 21
7.43144
  0
LINE
  8
0
 10
31.0705
 20
7.43144
 11
32.7619
 21
8.66025
  0
LINE
  8
0
 10
32.7619
 20
8.66025
 11
34.6717
 21
9.51056
  0
LINE
  8
0
 10
34.6717
 20
9.51056
 11
175.812
 21
70.3924
  0
LINE
  8
0
 10
175.812
 20
70.3924
 11
177.856
 21
70.827
  0
LINE
  8
0
 10
177.856
 20
70.827
 11
179.947
 21
70.827
  0
LINE
  8
0
 10
179.947
 20
70.827
 11
181.992
 21
70.3924
  0
LINE
  8
0
 10
181.992
 20
70.3924
 11
183.902
 21
69.5421
  0
LINE
  8
0
 10
183.902
 20
69.5421
 11
185.593
 21
68.3132
  0
LINE
  8
0
 10
185.593
 20
68.3132
 11
186.992
 21
66.7596
  0
LINE
  8
0
 10
186.992
 20
66.7596
 11
188.037
 21
64.9492
  0
LINE
  8
0
 10
188.037
 20
64.9492
 11
195.63
 21
41.5824
  0
LINE
  8
0
 10
195.63
 20
41.5824
 11
200
 21
0
  0
LINE
  8
0
 10
200
 20
0
 11
195.63
 21
-41.5824
  0
LINE
  8
0
 10
195.63
 20
-41.5824
 11
188.037
 21
-64.9492
  0
LINE
  8
0
 10
188.037
 20
-64.9492
 11
186.992
 21
-66.7596
  0
LINE
  8
0
 10
186.992
 20
-66.7596
 11
185.593
 21
-68.3132
  0
LINE
  8
0
 10
185.593
 20
-68.3132
 11
183.902
 21
-69.5421
  0
LINE
  8
0
 10
183.902
 20
-69.5421
 11
181.992
 21
-70.3924
  0
LINE
  8
0
 10
181.992
 20
-70.3924
 11
179.947
 21
-70.827
  0
LINE
  8
0
 10
179.947
 20
-70.827
 11
177.856
 21
-70.827
  0
LINE
  8
0
 10
-8.9579
 20
12.4845
 11
-9.8329
 21
14
  0
LINE
  8
0
 10
-9.8329
 20
14
 11
-8.9579
 21
15.5155
  0
LINE
  8
0
 10
-8.9579
 20
15.5155
 11
-7.2079
 21
15.5155
  0
LINE
  8
0
 10
-7.2079
 20
15.5155
 11
-6.3329
 21
14
  0
LINE
  8
0
 10
-6.3329
 20
14
 11
-7.2079
 21
12.4845
  0
LINE
  8
0
 10
-7.2079
 20
12.4845
 11
-8.9579
 21
12.4845
  0
LINE
  8
0
 10
-1.44638
 20
-6.33702
 11
-3.25
 21
-5.62915
  0
LINE
  8
0
 10
-3.25
 20
-5.62915
 11
-4.76483
 21
-4.42111
  0
LINE
  8
0
 10
-4.76483
 20
-4.42111
 11
-5.85629
 21
-2.82024
  0
LINE
  8
0
 10
-5.85629
 20
-2.82024
 11
-6.4274
 21
-0.968765
  0
LINE
  8
0
 10
-6.4274
 20
-0.968765
 11
-6.4274
 21
0.968765
  0
LINE
  8
0
 10
-6.4274
 20
0.968765
 11
-5.85629
 21
2.82024
  0
LINE
  8
0
 10
-5.85629
 20
2.82024
 11
-4.76483
 21
4.42111
  0
LINE
  8
0
 10
-4.76483
 20
4.42111
 11
-3.24998
 21
5.62915
  0
LINE
  8
0
 10
-3.24998
 20
5.62915
 11
-1.44638
 21
6.33702
  0
LINE
  8
0
 10
-1.44638
 20
6.33702
 11
0.485733
 21
6.48181
  0
LINE
  8
0
 10
0.485733
 20
6.48181
 11
2.37471
 21
6.05067
  0
LINE
  8
0
 10
2.37471
 20
6.05067
 11
4.05267
 21
5.08189
  0
LINE
  8
0
 10
4.05267
 20
5.08189
 11
5.37054
 21
3.66158
  0
LINE
  8
0
 10
5.37054
 20
3.66158
 11
6.21121
 21
1.91589
  0
LINE
  8
0
 10
6.21121
 20
1.91589
 11
6.5
 21
0
  0
LINE
  8
0
 10
6.5
 20
0
 11
6.21121
 21
-1.91589
  0
LINE
  8
0
 10
6.21121
 20
-1.91589
 11
5.37054
 21
-3.66158
  0
LINE
  8
0
 10
5.37054
 20
-3.66158
 11
4.05267
 21
-5.08189
  0
LINE
  8
0
 10
4.05267
 20
-5.08189
 11
2.37471
 21
-6.05067
  0
LINE
  8
0
 10
2.37471
 20
-6.05067
 11
0.485733
 21
-6.48181
  0
LINE
  8
0
 10
0.485733
 20
-6.48181
 11
-1.44638
 21
-6.33702
  0
LINE
  8
0
 10
15.2908
 20
-1.51553
 11
14.4158
 21
0
  0
LINE
  8
0
 10
14.4158
 20
0
 11
15.2908
 21
1.51553
  0
LINE
  8
0
 10
15.2908
 20
1.51553
 11
17.0408
 21
1.51553
  0
LINE
  8
0
 10
17.0408
 20
1.51553
 11
17.9158
 21
0
  0
LINE
  8
0
 10
17.9158
 20
0
 11
17.0408
 21
-1.51553
  0
LINE
  8
0
 10
17.0408
 20
-1.51553
 11
15.2908
 21
-1.51553
  0
LINE
  8
0
 10
-8.9579
 20
-15.5155
 11
-9.8329
 21
-14
  0
LINE
  8
0
 10
-9.8329
 20
-14
 11
-8.9579
 21
-12.4845
  0
LINE
  8
0
 10
-8.9579
 20
-12.4845
 11
-7.2079
 21
-12.4845
  0
LINE
  8
0
 10
-7.2079
 20
-12.4845
 11
-6.3329
 21
-14
  0
LINE
  8
0
 10
-6.3329
 20
-14
 11
-7.2079
 21
-15.5155
  0
LINE
  8
0
 10
-7.2079
 20
-15.5155
 11
-8.9579
 21
-15.5155
  0
LINE
  8
0
 10
72.8758
 20
-183.875
 11
70.8309
 21
-183.44
  0
LINE
  8
0
 10
70.8309
 20
-183.44
 11
68.9211
 21
-182.59
  0
LINE
  8
0
 10
68.9211
 20
-182.59
 11
67.2298
 21
-181.361
  0
LINE
  8
0
 10
67.2298
 20
-181.361
 11
65.8309
 21
-179.808
  0
LINE
  8
0
 10
65.8309
 20
-179.808
 11
64.7856
 21
-177.997
  0
LINE
  8
0
 10
64.7856
 20
-177.997
 11
10.4903
 21
-28.8219
  0
LINE
  8
0
 10
10.4903
 20
-28.8219
 11
9.84431
 21
-26.8337
  0
LINE
  8
0
 10
9.84431
 20
-26.8337
 11
9.62578
 21
-24.7546
  0
LINE
  8
0
 10
9.62578
 20
-24.7546
 11
9.84431
 21
-22.6755
  0
LINE
  8
0
 10
9.84431
 20
-22.6755
 11
10.4903
 21
-20.6872
  0
LINE
  8
0
 10
10.4903
 20
-20.6872
 11
11.5356
 21
-18.8768
  0
LINE
  8
0
 10
11.5356
 20
-18.8768
 11
12.9345
 21
-17.3232
  0
LINE
  8
0
 10
12.9345
 20
-17.3232
 11
14.6258
 21
-16.0943
  0
LINE
  8
0
 10
14.6258
 20
-16.0943
 11
16.5356
 21
-15.244
  0
LINE
  8
0
 10
16.5356
 20
-15.244
 11
18.5805
 21
-14.8094
  0
LINE
  8
0
 10
18.5805
 20
-14.8094
 11
20.6711
 21
-14.8094
  0
LINE
  8
0
 10
20.6711
 20
-14.8094
 11
22.7159
 21
-15.244
  0
LINE
  8
0
 10
22.7159
 20
-15.244
 11
170.247
 21
-78.8829
  0
LINE
  8
0
 10
170.247
 20
-78.8829
 11
172.157
 21
-79.7332
  0
LINE
  8
0
 10
172.157
 20
-79.7332
 11
173.849
 21
-80.962
  0
LINE
  8
0
 10
173.849
 20
-80.962
 11
175.247
 21
-82.5156
  0
LINE
  8
0
 10
175.247
 20
-82.5156
 11
176.293
 21
-84.3261
  0
LINE
  8
0
 10
176.293
 20
-84.3261
 11
176.939
 21
-86.3143
  0
LINE
  8
0
 10
176.939
 20
-86.3143
 11
177.157
 21
-88.3935
  0
LINE
  8
0
 10
177.157
 20
-88.3935
 11
176.939
 21
-90.4726
  0
LINE
  8
0
 10
176.939
 20
-90.4726
 11
176.293
 21
-92.4608
  0
LINE
  8
0
 10
176.293
 20
-92.4608
 11
161.803
 21
-117.557
  0
LINE
  8
0
 10
161.803
 20
-117.557
 11
133.826
 21
-148.629
  0
LINE
  8
0
 10
133.826
 20
-148.629
 11
100
 21
-173.205
  0
LINE
  8
0
 10
100
 20
-173.205
 11
77.0112
 21
-183.44
  0
LINE
  8
0
 10
77.0112
 20
-183.44
 11
74.9664
 21
-183.875
  0
LINE
  8
0
 10
74.9664
 20
-183.875
 11
72.8758
 21
-183.875
  0
ENDSEC
  0
SECTION
  2
OBJECTS
  0
DICTIONARY
  0
ENDSEC
  0
EOF
