  0
SECTION
  2
BLOCKS
  0
ENDSEC
  0
SECTION
  2
ENTITIES
  0
LINE
  8
0
 10
71.2856
 20
-196.876
 11
105
 21
-181.865
  0
LINE
  8
0
 10
105
 20
-181.865
 11
140.517
 21
-156.06
  0
LINE
  8
0
 10
140.517
 20
-156.06
 11
169.894
 21
-123.435
  0
LINE
  8
0
 10
169.894
 20
-123.435
 11
191.845
 21
-85.4147
  0
LINE
  8
0
 10
191.845
 20
-85.4147
 11
205.411
 21
-43.6615
  0
LINE
  8
0
 10
205.411
 20
-43.6615
 11
210
 21
0
  0
LINE
  8
0
 10
210
 20
0
 11
205.411
 21
43.6615
  0
LINE
  8
0
 10
205.411
 20
43.6615
 11
191.845
 21
85.4147
  0
LINE
  8
0
 10
191.845
 20
85.4147
 11
169.894
 21
123.435
  0
LINE
  8
0
 10
169.894
 20
123.435
 11
140.517
 21
156.06
  0
LINE
  8
0
 10
140.517
 20
156.06
 11
105
 21
181.865
  0
LINE
  8
0
 10
105
 20
181.865
 11
71.2856
 21
196.876
  0
LINE
  8
0
 10
71.2856
 20
196.876
 11
69.2407
 21
197.311
  0
LINE
  8
0
 10
69.2407
 20
197.311
 11
67.1501
 21
197.311
  0
LINE
  8
0
 10
67.1501
 20
197.311
 11
65.1053
 21
196.876
  0
LINE
  8
0
 10
65.1053
 20
196.876
 11
63.1954
 21
196.026
  0
LINE
  8
0
 10
63.1954
 20
196.026
 11
61.5041
 21
194.797
  0
LINE
  8
0
 10
61.5041
 20
194.797
 11
60.1052
 21
193.243
  0
LINE
  8
0
 10
60.1052
 20
193.243
 11
59.06
 21
191.433
  0
LINE
  8
0
 10
59.06
 20
191.433
 11
-1.73511
 21
24.3996
  0
LINE
  8
0
 10
-1.73511
 20
24.3996
 11
-2.7804
 21
22.5891
  0
LINE
  8
0
 10
-2.7804
 20
22.5891
 11
-4.17926
 21
21.0355
  0
LINE
  8
0
 10
-4.17926
 20
21.0355
 11
-5.87056
 21
19.8067
  0
LINE
  8
0
 10
-5.87056
 20
19.8067
 11
-7.7804
 21
18.9564
  0
LINE
  8
0
 10
-7.7804
 20
18.9564
 11
-8.70946
 21
18.7589
  0
LINE
  8
0
 10
-8.70946
 20
18.7589
 11
-10.4828
 21
18.1569
  0
LINE
  8
0
 10
-10.4828
 20
18.1569
 11
-11.891
 21
16.922
  0
LINE
  8
0
 10
-11.891
 20
16.922
 11
-12.7193
 21
15.2423
  0
LINE
  8
0
 10
-12.7193
 20
15.2423
 11
-12.8418
 21
13.3735
  0
LINE
  8
0
 10
-12.8418
 20
13.3735
 11
-12.2398
 21
11.6
  0
LINE
  8
0
 10
-12.2398
 20
11.6
 11
-11.3094
 21
10.539
  0
LINE
  8
0
 10
-11.3094
 20
10.539
 11
-10.2641
 21
8.72852
  0
LINE
  8
0
 10
-10.2641
 20
8.72852
 11
-9.61806
 21
6.74028
  0
LINE
  8
0
 10
-9.61806
 20
6.74028
 11
-9.39952
 21
4.66116
  0
LINE
  8
0
 10
-9.39952
 20
4.66116
 11
-9.61806
 21
2.58205
  0
LINE
  8
0
 10
-9.61806
 20
2.58205
 11
-9.78146
 21
2.07912
  0
LINE
  8
0
 10
-9.78146
 20
2.07912
 11
-10
 21
0
  0
LINE
  8
0
 10
-10
 20
0
 11
-9.78146
 21
-2.07912
  0
LINE
  8
0
 10
-9.78146
 20
-2.07912
 11
-9.61806
 21
-2.58205
  0
LINE
  8
0
 10
-9.61806
 20
-2.58205
 11
-9.39952
 21
-4.66116
  0
LINE
  8
0
 10
-9.39952
 20
-4.66116
 11
-9.61806
 21
-6.74028
  0
LINE
  8
0
 10
-9.61806
 20
-6.74028
 11
-10.2641
 21
-8.72852
  0
LINE
  8
0
 10
-10.2641
 20
-8.72852
 11
-11.3094
 21
-10.539
  0
LINE
  8
0
 10
-11.3094
 20
-10.539
 11
-12.2398
 21
-11.6
  0
LINE
  8
0
 10
-12.2398
 20
-11.6
 11
-12.8418
 21
-13.3735
  0
LINE
  8
0
 10
-12.8418
 20
-13.3735
 11
-12.7193
 21
-15.2423
  0
LINE
  8
0
 10
-12.7193
 20
-15.2423
 11
-11.891
 21
-16.922
  0
LINE
  8
0
 10
-11.891
 20
-16.922
 11
-10.4829
 21
-18.1569
  0
LINE
  8
0
 10
-10.4829
 20
-18.1569
 11
-8.70946
 21
-18.7589
  0
LINE
  8
0
 10
-8.70946
 20
-18.7589
 11
-7.7804
 21
-18.9564
  0
LINE
  8
0
 10
-7.7804
 20
-18.9564
 11
-5.87056
 21
-19.8067
  0
LINE
  8
0
 10
-5.87056
 20
-19.8067
 11
-4.17926
 21
-21.0355
  0
LINE
  8
0
 10
-4.17926
 20
-21.0355
 11
-2.7804
 21
-22.5891
  0
LINE
  8
0
 10
-2.7804
 20
-22.5891
 11
-1.73511
 21
-24.3996
  0
LINE
  8
0
 10
-1.73511
 20
-24.3996
 11
59.06
 21
-191.433
  0
LINE
  8
0
 10
59.06
 20
-191.433
 11
60.1052
 21
-193.243
  0
LINE
  8
0
 10
60.1052
 20
-193.243
 11
61.5041
 21
-194.797
  0
LINE
  8
0
 10
61.5041
 20
-194.797
 11
63.1954
 21
-196.026
  0
LINE
  8
0
 10
63.1954
 20
-196.026
 11
65.1052
 21
-196.876
  0
LINE
  8
0
 10
65.1052
 20
-196.876
 11
67.1501
 21
-197.311
  0
LINE
  8
0
 10
67.1501
 20
-197.311
 11
69.2407
 21
-197.311
  0
LINE
  8
0
 10
69.2407
 20
-197.311
 11
71.2856
 21
-196.876
  0
LINE
  8
0
 10
18.5805
 20
14.8094
 11
16.5356
 21
15.244
  0
LINE
  8
0
 10
16.5356
 20
15.244
 11
14.6258
 21
16.0943
  0
LINE
  8
0
 10
14.6258
 20
16.0943
 11
12.9345
 21
17.3232
  0
LINE
  8
0
 10
12.9345
 20
17.3232
 11
11.5356
 21
18.8768
  0
LINE
  8
0
 10
11.5356
 20
18.8768
 11
10.4903
 21
20.6872
  0
LINE
  8
0
 10
10.4903
 20
20.6872
 11
9.84431
 21
22.6755
  0
LINE
  8
0
 10
9.84431
 20
22.6755
 11
9.62578
 21
24.7546
  0
LINE
  8
0
 10
9.62578
 20
24.7546
 11
9.84431
 21
26.8337
  0
LINE
  8
0
 10
9.84431
 20
26.8337
 11
10.4903
 21
28.8219
  0
LINE
  8
0
 10
10.4903
 20
28.8219
 11
64.7856
 21
177.997
  0
LINE
  8
0
 10
64.7856
 20
177.997
 11
65.8309
 21
179.808
  0
LINE
  8
0
 10
65.8309
 20
179.808
 11
67.2298
 21
181.361
  0
LINE
  8
0
 10
67.2298
 20
181.361
 11
68.9211
 21
182.59
  0
LINE
  8
0
 10
68.9211
 20
182.59
 11
70.8309
 21
183.44
  0
LINE
  8
0
 10
70.8309
 20
183.44
 11
72.8758
 21
183.875
  0
LINE
  8
0
 10
72.8758
 20
183.875
 11
74.9664
 21
183.875
  0
LINE
  8
0
 10
74.9664
 20
183.875
 11
77.0112
 21
183.44
  0
LINE
  8
0
 10
77.0112
 20
183.44
 11
100
 21
173.205
  0
LINE
  8
0
 10
100
 20
173.205
 11
133.826
 21
148.629
  0
LINE
  8
0
 10
133.826
 20
148.629
 11
161.803
 21
117.557
  0
LINE
  8
0
 10
161.803
 20
117.557
 11
176.293
 21
92.4608
  0
LINE
  8
0
 10
176.293
 20
92.4608
 11
176.939
 21
90.4726
  0
LINE
  8
0
 10
176.939
 20
90.4726
 11
177.157
 21
88.3935
  0
LINE
  8
0
 10
177.157
 20
88.3935
 11
176.939
 21
86.3143
  0
LINE
  8
0
 10
176.939
 20
86.3143
 11
176.293
 21
84.3261
  0
LINE
  8
0
 10
176.293
 20
84.3261
 11
175.247
 21
82.5156
  0
LINE
  8
0
 10
175.247
 20
82.5156
 11
173.849
 21
80.962
  0
LINE
  8
0
 10
173.849
 20
80.962
 11
172.157
 21
79.7332
  0
LINE
  8
0
 10
172.157
 20
79.7332
 11
170.247
 21
78.8829
  0
LINE
  8
0
 10
170.247
 20
78.8829
 11
22.7159
 21
15.244
  0
LINE
  8
0
 10
22.7159
 20
15.244
 11
20.6711
 21
14.8094
  0
LINE
  8
0
 10
20.6711
 20
14.8094
 11
18.5805
 21
14.8094
  0
LINE
  8
0
 10
177.856
 20
-70.827
 11
175.812
 21
-70.3924
  0
LINE
  8
0
 10
175.812
 20
-70.3924
 11
34.6717
 21
-9.51056
  0
LINE
  8
0
 10
34.6717
 20
-9.51056
 11
32.7618
 21
-8.66025
  0
LINE
  8
0
 10
32.7618
 20
-8.66025
 11
31.0705
 21
-7.43144
  0
LINE
  8
0
 10
31.0705
 20
-7.43144
 11
29.6717
 21
-5.87784
  0
LINE
  8
0
 10
29.6717
 20
-5.87784
 11
28.6264
 21
-4.06735
  0
LINE
  8
0
 10
28.6264
 20
-4.06735
 11
27.9804
 21
-2.07912
  0
LINE
  8
0
 10
27.9804
 20
-2.07912
 11
27.7618
 21
0
  0
LINE
  8
0
 10
27.7618
 20
0
 11
27.9804
 21
2.07912
  0
LINE
  8
0
 10
27.9804
 20
2.07912
 11
28.6264
 21
4.06735
  0
LINE
  8
0
 10
28.6264
 20
4.06735
 11
29.6717
 21
5.87784
  0
LINE
  8
0
 10
29.6717
 20
5.87784
 11
31.0705
 21
7.43144
  0
LINE
  8
0
 10
31.0705
 20
7.43144
 11
32.7618
 21
8.66025
  0
LINE
  8
0
 10
32.7618
 20
8.66025
 11
34.6717
 21
9.51056
  0
LINE
  8
0
 10
34.6717
 20
9.51056
 11
175.812
 21
70.3924
  0
LINE
  8
0
 10
175.812
 20
70.3924
 11
177.856
 21
70.827
  0
LINE
  8
0
 10
177.856
 20
70.827
 11
179.947
 21
70.827
  0
LINE
  8
0
 10
179.947
 20
70.827
 11
181.992
 21
70.3924
  0
LINE
  8
0
 10
181.992
 20
70.3924
 11
183.902
 21
69.5421
  0
LINE
  8
0
 10
183.902
 20
69.5421
 11
185.593
 21
68.3132
  0
LINE
  8
0
 10
185.593
 20
68.3132
 11
186.992
 21
66.7596
  0
LINE
  8
0
 10
186.992
 20
66.7596
 11
188.037
 21
64.9492
  0
LINE
  8
0
 10
188.037
 20
64.9492
 11
195.63
 21
41.5824
  0
LINE
  8
0
 10
195.63
 20
41.5824
 11
200
 21
0
  0
LINE
  8
0
 10
200
 20
0
 11
195.63
 21
-41.5824
  0
LINE
  8
0
 10
195.63
 20
-41.5824
 11
188.037
 21
-64.9492
  0
LINE
  8
0
 10
188.037
 20
-64.9492
 11
186.992
 21
-66.7596
  0
LINE
  8
0
 10
186.992
 20
-66.7596
 11
185.593
 21
-68.3132
  0
LINE
  8
0
 10
185.593
 20
-68.3132
 11
183.902
 21
-69.5421
  0
LINE
  8
0
 10
183.902
 20
-69.5421
 11
181.992
 21
-70.3924
  0
LINE
  8
0
 10
181.992
 20
-70.3924
 11
179.947
 21
-70.827
  0
LINE
  8
0
 10
179.947
 20
-70.827
 11
177.856
 21
-70.827
  0
LINE
  8
0
 10
-8.88289
 20
12.6143
 11
-9.68289
 21
14
  0
LINE
  8
0
 10
-9.68289
 20
14
 11
-8.88289
 21
15.3856
  0
LINE
  8
0
 10
-8.88289
 20
15.3856
 11
-7.2829
 21
15.3856
  0
LINE
  8
0
 10
-7.2829
 20
15.3856
 11
-6.48289
 21
14
  0
LINE
  8
0
 10
-6.48289
 20
14
 11
-7.2829
 21
12.6143
  0
LINE
  8
0
 10
-7.2829
 20
12.6143
 11
-8.88289
 21
12.6143
  0
LINE
  8
0
 10
-2.25
 20
-3.89711
 11
-3.64056
 21
-2.64502
  0
LINE
  8
0
 10
-3.64056
 20
-2.64502
 11
-4.40166
 21
-0.935593
  0
LINE
  8
0
 10
-4.40166
 20
-0.935593
 11
-4.40166
 21
0.935593
  0
LINE
  8
0
 10
-4.40166
 20
0.935593
 11
-3.64056
 21
2.64502
  0
LINE
  8
0
 10
-3.64056
 20
2.64502
 11
-2.24998
 21
3.89711
  0
LINE
  8
0
 10
-2.24998
 20
3.89711
 11
-0.470367
 21
4.47534
  0
LINE
  8
0
 10
-0.470367
 20
4.47534
 11
1.39056
 21
4.27974
  0
LINE
  8
0
 10
1.39056
 20
4.27974
 11
3.01108
 21
3.34415
  0
LINE
  8
0
 10
3.01108
 20
3.34415
 11
4.11095
 21
1.83031
  0
LINE
  8
0
 10
4.11095
 20
1.83031
 11
4.5
 21
0
  0
LINE
  8
0
 10
4.5
 20
0
 11
4.11095
 21
-1.83031
  0
LINE
  8
0
 10
4.11095
 20
-1.83031
 11
3.01108
 21
-3.34415
  0
LINE
  8
0
 10
3.01108
 20
-3.34415
 11
1.39056
 21
-4.27974
  0
LINE
  8
0
 10
1.39056
 20
-4.27974
 11
-0.470367
 21
-4.47534
  0
LINE
  8
0
 10
-0.470367
 20
-4.47534
 11
-2.25
 21
-3.89711
  0
LINE
  8
0
 10
15.3658
 20
-1.38564
 11
14.5658
 21
0
  0
LINE
  8
0
 10
14.5658
 20
0
 11
15.3658
 21
1.38564
  0
LINE
  8
0
 10
15.3658
 20
1.38564
 11
16.9658
 21
1.38564
  0
LINE
  8
0
 10
16.9658
 20
1.38564
 11
17.7658
 21
0
  0
LINE
  8
0
 10
17.7658
 20
0
 11
16.9658
 21
-1.38564
  0
LINE
  8
0
 10
16.9658
 20
-1.38564
 11
15.3658
 21
-1.38564
  0
LINE
  8
0
 10
-8.88289
 20
-15.3856
 11
-9.68289
 21
-14
  0
LINE
  8
0
 10
-9.68289
 20
-14
 11
-8.88289
 21
-12.6143
  0
LINE
  8
0
 10
-8.88289
 20
-12.6143
 11
-7.2829
 21
-12.6143
  0
LINE
  8
0
 10
-7.2829
 20
-12.6143
 11
-6.48289
 21
-14
  0
LINE
  8
0
 10
-6.48289
 20
-14
 11
-7.2829
 21
-15.3856
  0
LINE
  8
0
 10
-7.2829
 20
-15.3856
 11
-8.88289
 21
-15.3856
  0
LINE
  8
0
 10
72.8758
 20
-183.875
 11
70.8309
 21
-183.44
  0
LINE
  8
0
 10
70.8309
 20
-183.44
 11
68.9211
 21
-182.59
  0
LINE
  8
0
 10
68.9211
 20
-182.59
 11
67.2298
 21
-181.361
  0
LINE
  8
0
 10
67.2298
 20
-181.361
 11
65.8309
 21
-179.808
  0
LINE
  8
0
 10
65.8309
 20
-179.808
 11
64.7856
 21
-177.997
  0
LINE
  8
0
 10
64.7856
 20
-177.997
 11
10.4903
 21
-28.8219
  0
LINE
  8
0
 10
10.4903
 20
-28.8219
 11
9.84431
 21
-26.8337
  0
LINE
  8
0
 10
9.84431
 20
-26.8337
 11
9.62578
 21
-24.7546
  0
LINE
  8
0
 10
9.62578
 20
-24.7546
 11
9.84431
 21
-22.6755
  0
LINE
  8
0
 10
9.84431
 20
-22.6755
 11
10.4903
 21
-20.6872
  0
LINE
  8
0
 10
10.4903
 20
-20.6872
 11
11.5356
 21
-18.8768
  0
LINE
  8
0
 10
11.5356
 20
-18.8768
 11
12.9345
 21
-17.3232
  0
LINE
  8
0
 10
12.9345
 20
-17.3232
 11
14.6258
 21
-16.0943
  0
LINE
  8
0
 10
14.6258
 20
-16.0943
 11
16.5356
 21
-15.244
  0
LINE
  8
0
 10
16.5356
 20
-15.244
 11
18.5805
 21
-14.8094
  0
LINE
  8
0
 10
18.5805
 20
-14.8094
 11
20.6711
 21
-14.8094
  0
LINE
  8
0
 10
20.6711
 20
-14.8094
 11
22.7159
 21
-15.244
  0
LINE
  8
0
 10
22.7159
 20
-15.244
 11
170.247
 21
-78.8829
  0
LINE
  8
0
 10
170.247
 20
-78.8829
 11
172.157
 21
-79.7332
  0
LINE
  8
0
 10
172.157
 20
-79.7332
 11
173.849
 21
-80.962
  0
LINE
  8
0
 10
173.849
 20
-80.962
 11
175.247
 21
-82.5156
  0
LINE
  8
0
 10
175.247
 20
-82.5156
 11
176.293
 21
-84.3261
  0
LINE
  8
0
 10
176.293
 20
-84.3261
 11
176.939
 21
-86.3143
  0
LINE
  8
0
 10
176.939
 20
-86.3143
 11
177.157
 21
-88.3935
  0
LINE
  8
0
 10
177.157
 20
-88.3935
 11
176.939
 21
-90.4726
  0
LINE
  8
0
 10
176.939
 20
-90.4726
 11
176.293
 21
-92.4608
  0
LINE
  8
0
 10
176.293
 20
-92.4608
 11
161.803
 21
-117.557
  0
LINE
  8
0
 10
161.803
 20
-117.557
 11
133.826
 21
-148.629
  0
LINE
  8
0
 10
133.826
 20
-148.629
 11
100
 21
-173.205
  0
LINE
  8
0
 10
100
 20
-173.205
 11
77.0112
 21
-183.44
  0
LINE
  8
0
 10
77.0112
 20
-183.44
 11
74.9664
 21
-183.875
  0
LINE
  8
0
 10
74.9664
 20
-183.875
 11
72.8758
 21
-183.875
  0
ENDSEC
  0
SECTION
  2
OBJECTS
  0
DICTIONARY
  0
ENDSEC
  0
EOF
