solid OpenSCAD_Model
  facet normal 0 0 -1
    outer loop
      vertex 28.4522 6.50919 0
      vertex 6.16466 6.7554 0
      vertex 28.4522 34.4908 0
    endloop
  endfacet
  facet normal 0 0 -1
    outer loop
      vertex 28.4522 34.4908 0
      vertex 6.84599 34.835 0
      vertex 7.09999 35.7 0
    endloop
  endfacet
  facet normal 0 0 -1
    outer loop
      vertex 6.16466 34.2446 0
      vertex 28.4522 34.4908 0
      vertex 6.16466 6.7554 0
    endloop
  endfacet
  facet normal -0 0 -1
    outer loop
      vertex 28.4522 34.4908 0
      vertex 6.16466 34.2446 0
      vertex 6.84599 34.835 0
    endloop
  endfacet
  facet normal 0 0 -1
    outer loop
      vertex 5.27229 6.88371 0
      vertex 6.16466 34.2446 0
      vertex 6.16466 6.7554 0
    endloop
  endfacet
  facet normal 0 0 -1
    outer loop
      vertex 5.27229 6.88371 0
      vertex 5.27229 34.1163 0
      vertex 6.16466 34.2446 0
    endloop
  endfacet
  facet normal 0 0 -1
    outer loop
      vertex 4.45221 6.50919 0
      vertex 5.27229 34.1163 0
      vertex 5.27229 6.88371 0
    endloop
  endfacet
  facet normal 0 0 -1
    outer loop
      vertex 4.45221 6.50919 0
      vertex 4.45221 34.4908 0
      vertex 5.27229 34.1163 0
    endloop
  endfacet
  facet normal 0 0 -1
    outer loop
      vertex 0.0581207 1.50679 0
      vertex 4.45221 6.50919 0
      vertex 3.9648 5.75076 0
    endloop
  endfacet
  facet normal -0 0 -1
    outer loop
      vertex 4.45221 6.50919 0
      vertex 0.0581207 1.50679 0
      vertex 4.45221 34.4908 0
    endloop
  endfacet
  facet normal 0 0 -1
    outer loop
      vertex 30.846 34.835 0
      vertex 51.5581 39.0146 0
      vertex 30.846 6.16502 0
    endloop
  endfacet
  facet normal 0 0 -1
    outer loop
      vertex 51.5581 39.0146 0
      vertex 30.846 34.835 0
      vertex 31.1 35.7 0
    endloop
  endfacet
  facet normal 0 0 -1
    outer loop
      vertex 30.1647 6.7554 0
      vertex 30.846 34.835 0
      vertex 30.846 6.16502 0
    endloop
  endfacet
  facet normal 0 0 -1
    outer loop
      vertex 30.1647 6.7554 0
      vertex 30.1647 34.2446 0
      vertex 30.846 34.835 0
    endloop
  endfacet
  facet normal 0 0 -1
    outer loop
      vertex 29.2723 6.88371 0
      vertex 30.1647 34.2446 0
      vertex 30.1647 6.7554 0
    endloop
  endfacet
  facet normal 0 0 -1
    outer loop
      vertex 29.2723 6.88371 0
      vertex 29.2723 34.1163 0
      vertex 30.1647 34.2446 0
    endloop
  endfacet
  facet normal 0 0 -1
    outer loop
      vertex 28.4522 6.50919 0
      vertex 29.2723 34.1163 0
      vertex 29.2723 6.88371 0
    endloop
  endfacet
  facet normal 0 0 -1
    outer loop
      vertex 28.4522 6.50919 0
      vertex 28.4522 34.4908 0
      vertex 29.2723 34.1163 0
    endloop
  endfacet
  facet normal 0 0 -1
    outer loop
      vertex 6.84599 6.16502 0
      vertex 27.9648 5.75076 0
      vertex 7.09999 5.29999 0
    endloop
  endfacet
  facet normal 0 0 -1
    outer loop
      vertex 27.9648 5.75076 0
      vertex 6.84599 6.16502 0
      vertex 28.4522 6.50919 0
    endloop
  endfacet
  facet normal 0 0 -1
    outer loop
      vertex 49.7992 0 0
      vertex 51.5581 1.98541 0
      vertex 51.329 1.05597 0
    endloop
  endfacet
  facet normal 0 0 -1
    outer loop
      vertex 30.846 6.16502 0
      vertex 51.5581 1.98541 0
      vertex 31.1 5.29999 0
    endloop
  endfacet
  facet normal 0 0 -1
    outer loop
      vertex 49.7992 0 0
      vertex 51.329 1.05597 0
      vertex 50.6942 0.339447 0
    endloop
  endfacet
  facet normal 0 0 -1
    outer loop
      vertex 51.5581 1.98541 0
      vertex 30.846 6.16502 0
      vertex 51.5581 39.0146 0
    endloop
  endfacet
  facet normal -0 0 -1
    outer loop
      vertex 51.5581 1.98541 0
      vertex 49.7992 0 0
      vertex 31.1 5.29999 0
    endloop
  endfacet
  facet normal 0 -0 -1
    outer loop
      vertex 49.7992 41 0
      vertex 51.5581 39.0146 0
      vertex 31.1 35.7 0
    endloop
  endfacet
  facet normal 0 0 -1
    outer loop
      vertex 51.5581 39.0146 0
      vertex 49.7992 41 0
      vertex 51.329 39.944 0
    endloop
  endfacet
  facet normal 0 0 -1
    outer loop
      vertex 49.7992 0 0
      vertex 30.846 4.43497 0
      vertex 31.1 5.29999 0
    endloop
  endfacet
  facet normal 0 0 -1
    outer loop
      vertex 49.7992 0 0
      vertex 30.1647 3.84457 0
      vertex 30.846 4.43497 0
    endloop
  endfacet
  facet normal 0 0 -1
    outer loop
      vertex 49.7992 0 0
      vertex 29.2723 3.71628 0
      vertex 30.1647 3.84457 0
    endloop
  endfacet
  facet normal 0 0 -1
    outer loop
      vertex 7.09999 5.29999 0
      vertex 27.9648 5.75076 0
      vertex 27.9648 4.84923 0
    endloop
  endfacet
  facet normal 0 0 -1
    outer loop
      vertex 6.16466 6.7554 0
      vertex 28.4522 6.50919 0
      vertex 6.84599 6.16502 0
    endloop
  endfacet
  facet normal 0 0 -1
    outer loop
      vertex 28.4522 34.4908 0
      vertex 7.09999 35.7 0
      vertex 27.9648 35.2492 0
    endloop
  endfacet
  facet normal 0 0 -1
    outer loop
      vertex 6.84599 4.43497 0
      vertex 27.9648 4.84923 0
      vertex 28.4522 4.09079 0
    endloop
  endfacet
  facet normal 0 0 -1
    outer loop
      vertex 2.24106 0 0
      vertex 28.4522 4.09079 0
      vertex 29.2723 3.71628 0
    endloop
  endfacet
  facet normal 0 0 -1
    outer loop
      vertex 2.24106 0 0
      vertex 29.2723 3.71628 0
      vertex 49.7992 0 0
    endloop
  endfacet
  facet normal -0 0 -1
    outer loop
      vertex 27.9648 4.84923 0
      vertex 6.84599 4.43497 0
      vertex 7.09999 5.29999 0
    endloop
  endfacet
  facet normal -0 0 -1
    outer loop
      vertex 28.4522 4.09079 0
      vertex 6.16466 3.84457 0
      vertex 6.84599 4.43497 0
    endloop
  endfacet
  facet normal 0 0 -1
    outer loop
      vertex 28.4522 4.09079 0
      vertex 2.24106 0 0
      vertex 6.16466 3.84457 0
    endloop
  endfacet
  facet normal 0 0 -1
    outer loop
      vertex 0.0581207 1.50679 0
      vertex 3.9648 5.75076 0
      vertex 3.9648 4.84923 0
    endloop
  endfacet
  facet normal 0 0 -1
    outer loop
      vertex 0.0581207 39.4932 0
      vertex 4.45221 34.4908 0
      vertex 0.0581207 1.50679 0
    endloop
  endfacet
  facet normal -0 0 -1
    outer loop
      vertex 4.45221 4.09079 0
      vertex 0.0581207 1.50679 0
      vertex 3.9648 4.84923 0
    endloop
  endfacet
  facet normal 0 0 -1
    outer loop
      vertex 0.0581207 1.50679 0
      vertex 4.45221 4.09079 0
      vertex 2.24106 0 0
    endloop
  endfacet
  facet normal -0 0 -1
    outer loop
      vertex 5.27229 3.71628 0
      vertex 2.24106 0 0
      vertex 4.45221 4.09079 0
    endloop
  endfacet
  facet normal 0 0 -1
    outer loop
      vertex 6.16466 3.84457 0
      vertex 2.24106 0 0
      vertex 5.27229 3.71628 0
    endloop
  endfacet
  facet normal 0 0 -1
    outer loop
      vertex 51.329 39.944 0
      vertex 49.7992 41 0
      vertex 50.6942 40.6606 0
    endloop
  endfacet
  facet normal 0 0 -1
    outer loop
      vertex 30.846 36.565 0
      vertex 49.7992 41 0
      vertex 31.1 35.7 0
    endloop
  endfacet
  facet normal 0 0 -1
    outer loop
      vertex 30.1647 37.1554 0
      vertex 49.7992 41 0
      vertex 30.846 36.565 0
    endloop
  endfacet
  facet normal 0 0 -1
    outer loop
      vertex 29.2723 37.2837 0
      vertex 49.7992 41 0
      vertex 30.1647 37.1554 0
    endloop
  endfacet
  facet normal 0 0 -1
    outer loop
      vertex 27.9648 35.2492 0
      vertex 7.09999 35.7 0
      vertex 27.9648 36.1508 0
    endloop
  endfacet
  facet normal 0 0 -1
    outer loop
      vertex 6.84599 36.565 0
      vertex 27.9648 36.1508 0
      vertex 7.09999 35.7 0
    endloop
  endfacet
  facet normal 0 0 -1
    outer loop
      vertex 27.9648 36.1508 0
      vertex 6.84599 36.565 0
      vertex 28.4522 36.9092 0
    endloop
  endfacet
  facet normal 0 0 -1
    outer loop
      vertex 6.16466 37.1554 0
      vertex 28.4522 36.9092 0
      vertex 6.84599 36.565 0
    endloop
  endfacet
  facet normal 0 0 -1
    outer loop
      vertex 2.24106 41 0
      vertex 28.4522 36.9092 0
      vertex 6.16466 37.1554 0
    endloop
  endfacet
  facet normal 0 0 -1
    outer loop
      vertex 28.4522 36.9092 0
      vertex 2.24106 41 0
      vertex 29.2723 37.2837 0
    endloop
  endfacet
  facet normal 0 0 -1
    outer loop
      vertex 2.24106 41 0
      vertex 6.16466 37.1554 0
      vertex 5.27229 37.2837 0
    endloop
  endfacet
  facet normal 0 0 -1
    outer loop
      vertex 29.2723 37.2837 0
      vertex 2.24106 41 0
      vertex 49.7992 41 0
    endloop
  endfacet
  facet normal 0 0 -1
    outer loop
      vertex 4.45221 36.9092 0
      vertex 2.24106 41 0
      vertex 5.27229 37.2837 0
    endloop
  endfacet
  facet normal 0 0 -1
    outer loop
      vertex 0.0581207 39.4932 0
      vertex 4.45221 36.9092 0
      vertex 3.9648 36.1508 0
    endloop
  endfacet
  facet normal 0 0 -1
    outer loop
      vertex 4.45221 34.4908 0
      vertex 0.0581207 39.4932 0
      vertex 3.9648 35.2492 0
    endloop
  endfacet
  facet normal 0 0 -1
    outer loop
      vertex 0.0581207 1.50679 0
      vertex 2.24106 0 0
      vertex 1.2908 0.115387 0
    endloop
  endfacet
  facet normal 0 0 -1
    outer loop
      vertex 3.9648 35.2492 0
      vertex 0.0581207 39.4932 0
      vertex 3.9648 36.1508 0
    endloop
  endfacet
  facet normal 0 0 -1
    outer loop
      vertex 0.0581207 1.50679 0
      vertex 1.2908 0.115387 0
      vertex 0.502991 0.65918 0
    endloop
  endfacet
  facet normal 0 0 -1
    outer loop
      vertex 4.45221 36.9092 0
      vertex 0.0581207 39.4932 0
      vertex 2.24106 41 0
    endloop
  endfacet
  facet normal 0 0 -1
    outer loop
      vertex 2.24106 41 0
      vertex 0.0581207 39.4932 0
      vertex 1.2908 40.8846 0
    endloop
  endfacet
  facet normal 0 0 -1
    outer loop
      vertex 1.2908 40.8846 0
      vertex 0.0581207 39.4932 0
      vertex 0.502991 40.3408 0
    endloop
  endfacet
  facet normal 0 0 1
    outer loop
      vertex 49.1871 37.7992 2
      vertex 51.5581 39.0146 2
      vertex 51.329 39.944 2
    endloop
  endfacet
  facet normal 0 0 1
    outer loop
      vertex 51.5581 39.0146 2
      vertex 49.4162 36.8698 2
      vertex 51.5581 1.98541 2
    endloop
  endfacet
  facet normal 0 0 1
    outer loop
      vertex 48.5524 38.5157 2
      vertex 51.329 39.944 2
      vertex 50.6942 40.6606 2
    endloop
  endfacet
  facet normal -0 0 1
    outer loop
      vertex 49.4162 4.13025 2
      vertex 51.5581 1.98541 2
      vertex 49.4162 36.8698 2
    endloop
  endfacet
  facet normal 0 0 1
    outer loop
      vertex 48.5524 38.5157 2
      vertex 50.6942 40.6606 2
      vertex 49.7992 41 2
    endloop
  endfacet
  facet normal -0 0 1
    outer loop
      vertex 49.1871 3.20081 2
      vertex 51.5581 1.98541 2
      vertex 49.4162 4.13025 2
    endloop
  endfacet
  facet normal 0 0 1
    outer loop
      vertex 51.5581 1.98541 2
      vertex 49.1871 3.20081 2
      vertex 51.329 1.05597 2
    endloop
  endfacet
  facet normal 0 0 1
    outer loop
      vertex 51.5581 39.0146 2
      vertex 49.1871 37.7992 2
      vertex 49.4162 36.8698 2
    endloop
  endfacet
  facet normal 0 0 1
    outer loop
      vertex 51.329 39.944 2
      vertex 48.5524 38.5157 2
      vertex 49.1871 37.7992 2
    endloop
  endfacet
  facet normal 0 0 1
    outer loop
      vertex 49.7992 41 2
      vertex 47.6573 38.8552 2
      vertex 48.5524 38.5157 2
    endloop
  endfacet
  facet normal 0 0 1
    outer loop
      vertex 49.7992 41 2
      vertex 29.1298 38.8552 2
      vertex 47.6573 38.8552 2
    endloop
  endfacet
  facet normal 0 0 1
    outer loop
      vertex 49.7992 41 2
      vertex 29.0446 38.8674 2
      vertex 29.1298 38.8552 2
    endloop
  endfacet
  facet normal 0 0 1
    outer loop
      vertex 2.24106 41 2
      vertex 29.0178 38.8552 2
      vertex 29.0446 38.8674 2
    endloop
  endfacet
  facet normal -0 0 1
    outer loop
      vertex 2.24106 41 2
      vertex 29.0446 38.8674 2
      vertex 49.7992 41 2
    endloop
  endfacet
  facet normal 0 0 1
    outer loop
      vertex 29.0178 38.8552 2
      vertex 2.24106 41 2
      vertex 5.12982 38.8552 2
    endloop
  endfacet
  facet normal 0 0 1
    outer loop
      vertex 5.0446 38.8674 2
      vertex 4.49918 38.8552 2
      vertex 5.01777 38.8552 2
    endloop
  endfacet
  facet normal 0 0 1
    outer loop
      vertex 5.12982 38.8552 2
      vertex 2.24106 41 2
      vertex 5.0446 38.8674 2
    endloop
  endfacet
  facet normal -0 0 1
    outer loop
      vertex 0.502991 40.3408 2
      vertex 2.76111 38.196 2
      vertex 1.2908 40.8846 2
    endloop
  endfacet
  facet normal -0 0 1
    outer loop
      vertex 1.2908 40.8846 2
      vertex 2.76111 38.196 2
      vertex 2.24106 41 2
    endloop
  endfacet
  facet normal 0 0 1
    outer loop
      vertex 3.54892 38.7398 2
      vertex 2.24106 41 2
      vertex 2.76111 38.196 2
    endloop
  endfacet
  facet normal 0 0 1
    outer loop
      vertex 4.49918 38.8552 2
      vertex 2.24106 41 2
      vertex 3.54892 38.7398 2
    endloop
  endfacet
  facet normal 0 0 1
    outer loop
      vertex 5.0446 38.8674 2
      vertex 2.24106 41 2
      vertex 4.49918 38.8552 2
    endloop
  endfacet
  facet normal -0 0 1
    outer loop
      vertex 48.5524 2.48428 2
      vertex 51.329 1.05597 2
      vertex 49.1871 3.20081 2
    endloop
  endfacet
  facet normal 0 0 1
    outer loop
      vertex 51.329 1.05597 2
      vertex 48.5524 2.48428 2
      vertex 50.6942 0.339447 2
    endloop
  endfacet
  facet normal 0 0 1
    outer loop
      vertex 50.6942 0.339447 2
      vertex 48.5524 2.48428 2
      vertex 49.7992 0 2
    endloop
  endfacet
  facet normal -0 0 1
    outer loop
      vertex 47.6573 2.14484 2
      vertex 49.7992 0 2
      vertex 48.5524 2.48428 2
    endloop
  endfacet
  facet normal -0 0 1
    outer loop
      vertex 29.1299 2.14484 2
      vertex 49.7992 0 2
      vertex 47.6573 2.14484 2
    endloop
  endfacet
  facet normal -0 0 1
    outer loop
      vertex 29.0446 2.13257 2
      vertex 49.7992 0 2
      vertex 29.1299 2.14484 2
    endloop
  endfacet
  facet normal 0 0 1
    outer loop
      vertex 2.24106 0 2
      vertex 29.0177 2.14484 2
      vertex 5.12993 2.14484 2
    endloop
  endfacet
  facet normal 0 0 1
    outer loop
      vertex 29.0177 2.14484 2
      vertex 2.24106 0 2
      vertex 29.0446 2.13257 2
    endloop
  endfacet
  facet normal 0 0 1
    outer loop
      vertex 2.24106 0 2
      vertex 5.12993 2.14484 2
      vertex 5.0446 2.13257 2
    endloop
  endfacet
  facet normal -0 0 1
    outer loop
      vertex 4.49918 2.14484 2
      vertex 5.0446 2.13257 2
      vertex 5.01774 2.14484 2
    endloop
  endfacet
  facet normal 0 0 1
    outer loop
      vertex 2.24106 0 2
      vertex 5.0446 2.13257 2
      vertex 4.49918 2.14484 2
    endloop
  endfacet
  facet normal 0 0 1
    outer loop
      vertex 29.0446 2.13257 2
      vertex 2.24106 0 2
      vertex 49.7992 0 2
    endloop
  endfacet
  facet normal 0 0 1
    outer loop
      vertex 3.54892 2.26022 2
      vertex 2.24106 0 2
      vertex 4.49918 2.14484 2
    endloop
  endfacet
  facet normal 0 0 1
    outer loop
      vertex 2.76111 2.80402 2
      vertex 2.24106 0 2
      vertex 3.54892 2.26022 2
    endloop
  endfacet
  facet normal 0 0 1
    outer loop
      vertex 0.0581207 1.50679 2
      vertex 2.76111 2.80402 2
      vertex 2.31624 3.65163 2
    endloop
  endfacet
  facet normal 0 0 1
    outer loop
      vertex 2.31624 37.3484 2
      vertex 0.0581207 39.4932 2
      vertex 2.31624 3.65163 2
    endloop
  endfacet
  facet normal -0 0 1
    outer loop
      vertex 0.0581207 39.4932 2
      vertex 2.76111 38.196 2
      vertex 0.502991 40.3408 2
    endloop
  endfacet
  facet normal 0 0 1
    outer loop
      vertex 0.0581207 1.50679 2
      vertex 2.31624 3.65163 2
      vertex 0.0581207 39.4932 2
    endloop
  endfacet
  facet normal 0 0 1
    outer loop
      vertex 2.76111 38.196 2
      vertex 0.0581207 39.4932 2
      vertex 2.31624 37.3484 2
    endloop
  endfacet
  facet normal 0 0 1
    outer loop
      vertex 2.76111 2.80402 2
      vertex 0.0581207 1.50679 2
      vertex 0.502991 0.65918 2
    endloop
  endfacet
  facet normal 0 0 1
    outer loop
      vertex 2.76111 2.80402 2
      vertex 1.2908 0.115387 2
      vertex 2.24106 0 2
    endloop
  endfacet
  facet normal 0 0 1
    outer loop
      vertex 2.76111 2.80402 2
      vertex 0.502991 0.65918 2
      vertex 1.2908 0.115387 2
    endloop
  endfacet
  facet normal 0.748512 -0.663121 0
    outer loop
      vertex 50.6942 0.339447 2
      vertex 51.329 1.05597 0
      vertex 51.329 1.05597 2
    endloop
  endfacet
  facet normal 0.748512 -0.663121 0
    outer loop
      vertex 51.329 1.05597 0
      vertex 50.6942 0.339447 2
      vertex 50.6942 0.339447 0
    endloop
  endfacet
  facet normal 0.97094 -0.239324 0
    outer loop
      vertex 51.329 1.05597 2
      vertex 51.5581 1.98541 0
      vertex 51.5581 1.98541 2
    endloop
  endfacet
  facet normal 0.97094 -0.239324 0
    outer loop
      vertex 51.5581 1.98541 0
      vertex 51.329 1.05597 2
      vertex 51.329 1.05597 0
    endloop
  endfacet
  facet normal 1 -0 0
    outer loop
      vertex 51.5581 1.98541 2
      vertex 51.5581 39.0146 0
      vertex 51.5581 39.0146 2
    endloop
  endfacet
  facet normal 1 0 0
    outer loop
      vertex 51.5581 39.0146 0
      vertex 51.5581 1.98541 2
      vertex 51.5581 1.98541 0
    endloop
  endfacet
  facet normal 0.97094 0.239324 0
    outer loop
      vertex 51.5581 39.0146 2
      vertex 51.329 39.944 0
      vertex 51.329 39.944 2
    endloop
  endfacet
  facet normal 0.97094 0.239324 0
    outer loop
      vertex 51.329 39.944 0
      vertex 51.5581 39.0146 2
      vertex 51.5581 39.0146 0
    endloop
  endfacet
  facet normal 0.748512 0.663121 0
    outer loop
      vertex 51.329 39.944 2
      vertex 50.6942 40.6606 0
      vertex 50.6942 40.6606 2
    endloop
  endfacet
  facet normal 0.748512 0.663121 0
    outer loop
      vertex 50.6942 40.6606 0
      vertex 51.329 39.944 2
      vertex 51.329 39.944 0
    endloop
  endfacet
  facet normal 0.354599 0.935018 -0
    outer loop
      vertex 50.6942 40.6606 0
      vertex 49.7992 41 2
      vertex 50.6942 40.6606 2
    endloop
  endfacet
  facet normal 0.354599 0.935018 0
    outer loop
      vertex 49.7992 41 2
      vertex 50.6942 40.6606 0
      vertex 49.7992 41 0
    endloop
  endfacet
  facet normal 0 1 -0
    outer loop
      vertex 49.7992 41 0
      vertex 2.24106 41 2
      vertex 49.7992 41 2
    endloop
  endfacet
  facet normal 0 1 0
    outer loop
      vertex 2.24106 41 2
      vertex 49.7992 41 0
      vertex 2.24106 41 0
    endloop
  endfacet
  facet normal -0.120542 0.992708 0
    outer loop
      vertex 2.24106 41 0
      vertex 1.2908 40.8846 2
      vertex 2.24106 41 2
    endloop
  endfacet
  facet normal -0.120542 0.992708 0
    outer loop
      vertex 1.2908 40.8846 2
      vertex 2.24106 41 0
      vertex 1.2908 40.8846 0
    endloop
  endfacet
  facet normal -0.568069 0.822981 0
    outer loop
      vertex 1.2908 40.8846 0
      vertex 0.502991 40.3408 2
      vertex 1.2908 40.8846 2
    endloop
  endfacet
  facet normal -0.568069 0.822981 0
    outer loop
      vertex 0.502991 40.3408 2
      vertex 1.2908 40.8846 0
      vertex 0.502991 40.3408 0
    endloop
  endfacet
  facet normal -0.885452 0.464731 0
    outer loop
      vertex 0.0581207 39.4932 0
      vertex 0.502991 40.3408 2
      vertex 0.502991 40.3408 0
    endloop
  endfacet
  facet normal -0.885452 0.464731 0
    outer loop
      vertex 0.502991 40.3408 2
      vertex 0.0581207 39.4932 0
      vertex 0.0581207 39.4932 2
    endloop
  endfacet
  facet normal -1 0 0
    outer loop
      vertex 0.0581207 1.50679 0
      vertex 0.0581207 39.4932 2
      vertex 0.0581207 39.4932 0
    endloop
  endfacet
  facet normal -1 -0 0
    outer loop
      vertex 0.0581207 39.4932 2
      vertex 0.0581207 1.50679 0
      vertex 0.0581207 1.50679 2
    endloop
  endfacet
  facet normal -0.885452 -0.464731 0
    outer loop
      vertex 0.502991 0.65918 0
      vertex 0.0581207 1.50679 2
      vertex 0.0581207 1.50679 0
    endloop
  endfacet
  facet normal -0.885452 -0.464731 0
    outer loop
      vertex 0.0581207 1.50679 2
      vertex 0.502991 0.65918 0
      vertex 0.502991 0.65918 2
    endloop
  endfacet
  facet normal -0.568069 -0.822981 0
    outer loop
      vertex 0.502991 0.65918 0
      vertex 1.2908 0.115387 2
      vertex 0.502991 0.65918 2
    endloop
  endfacet
  facet normal -0.568069 -0.822981 -0
    outer loop
      vertex 1.2908 0.115387 2
      vertex 0.502991 0.65918 0
      vertex 1.2908 0.115387 0
    endloop
  endfacet
  facet normal -0.120542 -0.992708 0
    outer loop
      vertex 1.2908 0.115387 0
      vertex 2.24106 0 2
      vertex 1.2908 0.115387 2
    endloop
  endfacet
  facet normal -0.120542 -0.992708 -0
    outer loop
      vertex 2.24106 0 2
      vertex 1.2908 0.115387 0
      vertex 2.24106 0 0
    endloop
  endfacet
  facet normal 0 -1 0
    outer loop
      vertex 2.24106 0 0
      vertex 49.7992 0 2
      vertex 2.24106 0 2
    endloop
  endfacet
  facet normal 0 -1 -0
    outer loop
      vertex 49.7992 0 2
      vertex 2.24106 0 0
      vertex 49.7992 0 0
    endloop
  endfacet
  facet normal 0.354599 -0.935018 0
    outer loop
      vertex 49.7992 0 0
      vertex 50.6942 0.339447 2
      vertex 49.7992 0 2
    endloop
  endfacet
  facet normal 0.354599 -0.935018 0
    outer loop
      vertex 50.6942 0.339447 2
      vertex 49.7992 0 0
      vertex 50.6942 0.339447 0
    endloop
  endfacet
  facet normal 0.841252 0.540643 0
    outer loop
      vertex 4.45221 34.4908 7
      vertex 3.9648 35.2492 0
      vertex 3.9648 35.2492 7
    endloop
  endfacet
  facet normal 0.841252 0.540643 0
    outer loop
      vertex 3.9648 35.2492 0
      vertex 4.45221 34.4908 7
      vertex 4.45221 34.4908 0
    endloop
  endfacet
  facet normal 1 -0 0
    outer loop
      vertex 3.9648 35.2492 7
      vertex 3.9648 36.1508 0
      vertex 3.9648 36.1508 7
    endloop
  endfacet
  facet normal 1 0 0
    outer loop
      vertex 3.9648 36.1508 0
      vertex 3.9648 35.2492 7
      vertex 3.9648 35.2492 0
    endloop
  endfacet
  facet normal 0.841257 -0.540635 0
    outer loop
      vertex 3.9648 36.1508 7
      vertex 4.45221 36.9092 0
      vertex 4.45221 36.9092 7
    endloop
  endfacet
  facet normal 0.841257 -0.540635 0
    outer loop
      vertex 4.45221 36.9092 0
      vertex 3.9648 36.1508 7
      vertex 3.9648 36.1508 0
    endloop
  endfacet
  facet normal 0.415408 -0.909635 0
    outer loop
      vertex 4.45221 36.9092 0
      vertex 5.27229 37.2837 7
      vertex 4.45221 36.9092 7
    endloop
  endfacet
  facet normal 0.415408 -0.909635 0
    outer loop
      vertex 5.27229 37.2837 7
      vertex 4.45221 36.9092 0
      vertex 5.27229 37.2837 0
    endloop
  endfacet
  facet normal -0.142308 -0.989822 0
    outer loop
      vertex 5.27229 37.2837 0
      vertex 6.16466 37.1554 7
      vertex 5.27229 37.2837 7
    endloop
  endfacet
  facet normal -0.142308 -0.989822 -0
    outer loop
      vertex 6.16466 37.1554 7
      vertex 5.27229 37.2837 0
      vertex 6.16466 37.1554 0
    endloop
  endfacet
  facet normal -0.654869 -0.755743 0
    outer loop
      vertex 6.16466 37.1554 0
      vertex 6.84599 36.565 7
      vertex 6.16466 37.1554 7
    endloop
  endfacet
  facet normal -0.654869 -0.755743 -0
    outer loop
      vertex 6.84599 36.565 7
      vertex 6.16466 37.1554 0
      vertex 6.84599 36.565 0
    endloop
  endfacet
  facet normal -0.959492 -0.281737 0
    outer loop
      vertex 7.09999 35.7 0
      vertex 6.84599 36.565 7
      vertex 6.84599 36.565 0
    endloop
  endfacet
  facet normal -0.959492 -0.281737 0
    outer loop
      vertex 6.84599 36.565 7
      vertex 7.09999 35.7 0
      vertex 7.09999 35.7 7
    endloop
  endfacet
  facet normal -0.959493 0.281733 0
    outer loop
      vertex 6.84599 34.835 0
      vertex 7.09999 35.7 7
      vertex 7.09999 35.7 0
    endloop
  endfacet
  facet normal -0.959493 0.281733 0
    outer loop
      vertex 7.09999 35.7 7
      vertex 6.84599 34.835 0
      vertex 6.84599 34.835 7
    endloop
  endfacet
  facet normal -0.654859 0.755751 0
    outer loop
      vertex 6.84599 34.835 0
      vertex 6.16466 34.2446 7
      vertex 6.84599 34.835 7
    endloop
  endfacet
  facet normal -0.654859 0.755751 0
    outer loop
      vertex 6.16466 34.2446 7
      vertex 6.84599 34.835 0
      vertex 6.16466 34.2446 0
    endloop
  endfacet
  facet normal -0.142324 0.98982 0
    outer loop
      vertex 6.16466 34.2446 0
      vertex 5.27229 34.1163 7
      vertex 6.16466 34.2446 7
    endloop
  endfacet
  facet normal -0.142324 0.98982 0
    outer loop
      vertex 5.27229 34.1163 7
      vertex 6.16466 34.2446 0
      vertex 5.27229 34.1163 0
    endloop
  endfacet
  facet normal 0.415422 0.909629 -0
    outer loop
      vertex 5.27229 34.1163 0
      vertex 4.45221 34.4908 7
      vertex 5.27229 34.1163 7
    endloop
  endfacet
  facet normal 0.415422 0.909629 0
    outer loop
      vertex 4.45221 34.4908 7
      vertex 5.27229 34.1163 0
      vertex 4.45221 34.4908 0
    endloop
  endfacet
  facet normal 0.841252 0.540643 0
    outer loop
      vertex 28.4522 34.4908 7
      vertex 27.9648 35.2492 0
      vertex 27.9648 35.2492 7
    endloop
  endfacet
  facet normal 0.841252 0.540643 0
    outer loop
      vertex 27.9648 35.2492 0
      vertex 28.4522 34.4908 7
      vertex 28.4522 34.4908 0
    endloop
  endfacet
  facet normal 1 -0 0
    outer loop
      vertex 27.9648 35.2492 7
      vertex 27.9648 36.1508 0
      vertex 27.9648 36.1508 7
    endloop
  endfacet
  facet normal 1 0 0
    outer loop
      vertex 27.9648 36.1508 0
      vertex 27.9648 35.2492 7
      vertex 27.9648 35.2492 0
    endloop
  endfacet
  facet normal 0.841257 -0.540635 0
    outer loop
      vertex 27.9648 36.1508 7
      vertex 28.4522 36.9092 0
      vertex 28.4522 36.9092 7
    endloop
  endfacet
  facet normal 0.841257 -0.540635 0
    outer loop
      vertex 28.4522 36.9092 0
      vertex 27.9648 36.1508 7
      vertex 27.9648 36.1508 0
    endloop
  endfacet
  facet normal 0.415408 -0.909635 0
    outer loop
      vertex 28.4522 36.9092 0
      vertex 29.2723 37.2837 7
      vertex 28.4522 36.9092 7
    endloop
  endfacet
  facet normal 0.415408 -0.909635 0
    outer loop
      vertex 29.2723 37.2837 7
      vertex 28.4522 36.9092 0
      vertex 29.2723 37.2837 0
    endloop
  endfacet
  facet normal -0.142308 -0.989822 0
    outer loop
      vertex 29.2723 37.2837 0
      vertex 30.1647 37.1554 7
      vertex 29.2723 37.2837 7
    endloop
  endfacet
  facet normal -0.142308 -0.989822 -0
    outer loop
      vertex 30.1647 37.1554 7
      vertex 29.2723 37.2837 0
      vertex 30.1647 37.1554 0
    endloop
  endfacet
  facet normal -0.654869 -0.755743 0
    outer loop
      vertex 30.1647 37.1554 0
      vertex 30.846 36.565 7
      vertex 30.1647 37.1554 7
    endloop
  endfacet
  facet normal -0.654869 -0.755743 -0
    outer loop
      vertex 30.846 36.565 7
      vertex 30.1647 37.1554 0
      vertex 30.846 36.565 0
    endloop
  endfacet
  facet normal -0.959492 -0.281737 0
    outer loop
      vertex 31.1 35.7 0
      vertex 30.846 36.565 7
      vertex 30.846 36.565 0
    endloop
  endfacet
  facet normal -0.959492 -0.281737 0
    outer loop
      vertex 30.846 36.565 7
      vertex 31.1 35.7 0
      vertex 31.1 35.7 7
    endloop
  endfacet
  facet normal -0.959493 0.281733 0
    outer loop
      vertex 30.846 34.835 0
      vertex 31.1 35.7 7
      vertex 31.1 35.7 0
    endloop
  endfacet
  facet normal -0.959493 0.281733 0
    outer loop
      vertex 31.1 35.7 7
      vertex 30.846 34.835 0
      vertex 30.846 34.835 7
    endloop
  endfacet
  facet normal -0.654859 0.755751 0
    outer loop
      vertex 30.846 34.835 0
      vertex 30.1647 34.2446 7
      vertex 30.846 34.835 7
    endloop
  endfacet
  facet normal -0.654859 0.755751 0
    outer loop
      vertex 30.1647 34.2446 7
      vertex 30.846 34.835 0
      vertex 30.1647 34.2446 0
    endloop
  endfacet
  facet normal -0.142324 0.98982 0
    outer loop
      vertex 30.1647 34.2446 0
      vertex 29.2723 34.1163 7
      vertex 30.1647 34.2446 7
    endloop
  endfacet
  facet normal -0.142324 0.98982 0
    outer loop
      vertex 29.2723 34.1163 7
      vertex 30.1647 34.2446 0
      vertex 29.2723 34.1163 0
    endloop
  endfacet
  facet normal 0.415422 0.909629 -0
    outer loop
      vertex 29.2723 34.1163 0
      vertex 28.4522 34.4908 7
      vertex 29.2723 34.1163 7
    endloop
  endfacet
  facet normal 0.415422 0.909629 0
    outer loop
      vertex 28.4522 34.4908 7
      vertex 29.2723 34.1163 0
      vertex 28.4522 34.4908 0
    endloop
  endfacet
  facet normal 0.841257 0.540635 0
    outer loop
      vertex 4.45221 4.09079 7
      vertex 3.9648 4.84923 0
      vertex 3.9648 4.84923 7
    endloop
  endfacet
  facet normal 0.841257 0.540635 0
    outer loop
      vertex 3.9648 4.84923 0
      vertex 4.45221 4.09079 7
      vertex 4.45221 4.09079 0
    endloop
  endfacet
  facet normal 1 -0 0
    outer loop
      vertex 3.9648 4.84923 7
      vertex 3.9648 5.75076 0
      vertex 3.9648 5.75076 7
    endloop
  endfacet
  facet normal 1 0 0
    outer loop
      vertex 3.9648 5.75076 0
      vertex 3.9648 4.84923 7
      vertex 3.9648 4.84923 0
    endloop
  endfacet
  facet normal 0.841252 -0.540643 0
    outer loop
      vertex 3.9648 5.75076 7
      vertex 4.45221 6.50919 0
      vertex 4.45221 6.50919 7
    endloop
  endfacet
  facet normal 0.841252 -0.540643 0
    outer loop
      vertex 4.45221 6.50919 0
      vertex 3.9648 5.75076 7
      vertex 3.9648 5.75076 0
    endloop
  endfacet
  facet normal 0.415422 -0.909629 0
    outer loop
      vertex 4.45221 6.50919 0
      vertex 5.27229 6.88371 7
      vertex 4.45221 6.50919 7
    endloop
  endfacet
  facet normal 0.415422 -0.909629 0
    outer loop
      vertex 5.27229 6.88371 7
      vertex 4.45221 6.50919 0
      vertex 5.27229 6.88371 0
    endloop
  endfacet
  facet normal -0.142324 -0.98982 0
    outer loop
      vertex 5.27229 6.88371 0
      vertex 6.16466 6.7554 7
      vertex 5.27229 6.88371 7
    endloop
  endfacet
  facet normal -0.142324 -0.98982 -0
    outer loop
      vertex 6.16466 6.7554 7
      vertex 5.27229 6.88371 0
      vertex 6.16466 6.7554 0
    endloop
  endfacet
  facet normal -0.654859 -0.755751 0
    outer loop
      vertex 6.16466 6.7554 0
      vertex 6.84599 6.16502 7
      vertex 6.16466 6.7554 7
    endloop
  endfacet
  facet normal -0.654859 -0.755751 -0
    outer loop
      vertex 6.84599 6.16502 7
      vertex 6.16466 6.7554 0
      vertex 6.84599 6.16502 0
    endloop
  endfacet
  facet normal -0.959493 -0.281733 0
    outer loop
      vertex 7.09999 5.29999 0
      vertex 6.84599 6.16502 7
      vertex 6.84599 6.16502 0
    endloop
  endfacet
  facet normal -0.959493 -0.281733 0
    outer loop
      vertex 6.84599 6.16502 7
      vertex 7.09999 5.29999 0
      vertex 7.09999 5.29999 7
    endloop
  endfacet
  facet normal -0.959492 0.281737 0
    outer loop
      vertex 6.84599 4.43497 0
      vertex 7.09999 5.29999 7
      vertex 7.09999 5.29999 0
    endloop
  endfacet
  facet normal -0.959492 0.281737 0
    outer loop
      vertex 7.09999 5.29999 7
      vertex 6.84599 4.43497 0
      vertex 6.84599 4.43497 7
    endloop
  endfacet
  facet normal -0.654869 0.755743 0
    outer loop
      vertex 6.84599 4.43497 0
      vertex 6.16466 3.84457 7
      vertex 6.84599 4.43497 7
    endloop
  endfacet
  facet normal -0.654869 0.755743 0
    outer loop
      vertex 6.16466 3.84457 7
      vertex 6.84599 4.43497 0
      vertex 6.16466 3.84457 0
    endloop
  endfacet
  facet normal -0.142308 0.989822 0
    outer loop
      vertex 6.16466 3.84457 0
      vertex 5.27229 3.71628 7
      vertex 6.16466 3.84457 7
    endloop
  endfacet
  facet normal -0.142308 0.989822 0
    outer loop
      vertex 5.27229 3.71628 7
      vertex 6.16466 3.84457 0
      vertex 5.27229 3.71628 0
    endloop
  endfacet
  facet normal 0.415408 0.909635 -0
    outer loop
      vertex 5.27229 3.71628 0
      vertex 4.45221 4.09079 7
      vertex 5.27229 3.71628 7
    endloop
  endfacet
  facet normal 0.415408 0.909635 0
    outer loop
      vertex 4.45221 4.09079 7
      vertex 5.27229 3.71628 0
      vertex 4.45221 4.09079 0
    endloop
  endfacet
  facet normal 0.841257 0.540635 0
    outer loop
      vertex 28.4522 4.09079 7
      vertex 27.9648 4.84923 0
      vertex 27.9648 4.84923 7
    endloop
  endfacet
  facet normal 0.841257 0.540635 0
    outer loop
      vertex 27.9648 4.84923 0
      vertex 28.4522 4.09079 7
      vertex 28.4522 4.09079 0
    endloop
  endfacet
  facet normal 1 -0 0
    outer loop
      vertex 27.9648 4.84923 7
      vertex 27.9648 5.75076 0
      vertex 27.9648 5.75076 7
    endloop
  endfacet
  facet normal 1 0 0
    outer loop
      vertex 27.9648 5.75076 0
      vertex 27.9648 4.84923 7
      vertex 27.9648 4.84923 0
    endloop
  endfacet
  facet normal 0.841252 -0.540643 0
    outer loop
      vertex 27.9648 5.75076 7
      vertex 28.4522 6.50919 0
      vertex 28.4522 6.50919 7
    endloop
  endfacet
  facet normal 0.841252 -0.540643 0
    outer loop
      vertex 28.4522 6.50919 0
      vertex 27.9648 5.75076 7
      vertex 27.9648 5.75076 0
    endloop
  endfacet
  facet normal 0.415422 -0.909629 0
    outer loop
      vertex 28.4522 6.50919 0
      vertex 29.2723 6.88371 7
      vertex 28.4522 6.50919 7
    endloop
  endfacet
  facet normal 0.415422 -0.909629 0
    outer loop
      vertex 29.2723 6.88371 7
      vertex 28.4522 6.50919 0
      vertex 29.2723 6.88371 0
    endloop
  endfacet
  facet normal -0.142324 -0.98982 0
    outer loop
      vertex 29.2723 6.88371 0
      vertex 30.1647 6.7554 7
      vertex 29.2723 6.88371 7
    endloop
  endfacet
  facet normal -0.142324 -0.98982 -0
    outer loop
      vertex 30.1647 6.7554 7
      vertex 29.2723 6.88371 0
      vertex 30.1647 6.7554 0
    endloop
  endfacet
  facet normal -0.654859 -0.755751 0
    outer loop
      vertex 30.1647 6.7554 0
      vertex 30.846 6.16502 7
      vertex 30.1647 6.7554 7
    endloop
  endfacet
  facet normal -0.654859 -0.755751 -0
    outer loop
      vertex 30.846 6.16502 7
      vertex 30.1647 6.7554 0
      vertex 30.846 6.16502 0
    endloop
  endfacet
  facet normal -0.959493 -0.281733 0
    outer loop
      vertex 31.1 5.29999 0
      vertex 30.846 6.16502 7
      vertex 30.846 6.16502 0
    endloop
  endfacet
  facet normal -0.959493 -0.281733 0
    outer loop
      vertex 30.846 6.16502 7
      vertex 31.1 5.29999 0
      vertex 31.1 5.29999 7
    endloop
  endfacet
  facet normal -0.959492 0.281737 0
    outer loop
      vertex 30.846 4.43497 0
      vertex 31.1 5.29999 7
      vertex 31.1 5.29999 0
    endloop
  endfacet
  facet normal -0.959492 0.281737 0
    outer loop
      vertex 31.1 5.29999 7
      vertex 30.846 4.43497 0
      vertex 30.846 4.43497 7
    endloop
  endfacet
  facet normal -0.654869 0.755743 0
    outer loop
      vertex 30.846 4.43497 0
      vertex 30.1647 3.84457 7
      vertex 30.846 4.43497 7
    endloop
  endfacet
  facet normal -0.654869 0.755743 0
    outer loop
      vertex 30.1647 3.84457 7
      vertex 30.846 4.43497 0
      vertex 30.1647 3.84457 0
    endloop
  endfacet
  facet normal -0.142308 0.989822 0
    outer loop
      vertex 30.1647 3.84457 0
      vertex 29.2723 3.71628 7
      vertex 30.1647 3.84457 7
    endloop
  endfacet
  facet normal -0.142308 0.989822 0
    outer loop
      vertex 29.2723 3.71628 7
      vertex 30.1647 3.84457 0
      vertex 29.2723 3.71628 0
    endloop
  endfacet
  facet normal 0.415408 0.909635 -0
    outer loop
      vertex 29.2723 3.71628 0
      vertex 28.4522 4.09079 7
      vertex 29.2723 3.71628 7
    endloop
  endfacet
  facet normal 0.415408 0.909635 0
    outer loop
      vertex 28.4522 4.09079 7
      vertex 29.2723 3.71628 0
      vertex 28.4522 4.09079 0
    endloop
  endfacet
  facet normal 0 0 1
    outer loop
      vertex 3.40443 38.1184 3
      vertex 4.49918 38.8552 3
      vertex 3.54892 38.7398 3
    endloop
  endfacet
  facet normal -0 0 1
    outer loop
      vertex 4.49918 38.8552 3
      vertex 3.40443 38.1184 3
      vertex 5.01777 38.8552 3
    endloop
  endfacet
  facet normal -0 0 1
    outer loop
      vertex 2.76111 38.196 3
      vertex 3.40443 38.1184 3
      vertex 3.54892 38.7398 3
    endloop
  endfacet
  facet normal 0 0 1
    outer loop
      vertex 2.31624 37.3484 3
      vertex 3.40443 38.1184 3
      vertex 2.76111 38.196 3
    endloop
  endfacet
  facet normal 0 0 1
    outer loop
      vertex 2.31624 37.3484 3
      vertex 2.42961 34.7985 3
      vertex 2.42961 36.6015 3
    endloop
  endfacet
  facet normal 0 0 1
    outer loop
      vertex 2.42961 34.7985 3
      vertex 2.31624 37.3484 3
      vertex 2.42961 6.20152 3
    endloop
  endfacet
  facet normal 0 0 1
    outer loop
      vertex 2.31624 3.65163 3
      vertex 2.42961 6.20152 3
      vertex 2.31624 37.3484 3
    endloop
  endfacet
  facet normal 0 0 1
    outer loop
      vertex 3.40443 38.1184 3
      vertex 2.31624 37.3484 3
      vertex 2.42961 36.6015 3
    endloop
  endfacet
  facet normal 0 0 1
    outer loop
      vertex 27.4044 7.71838 3
      vertex 8.69998 5.29999 3
      vertex 26.4296 6.20152 3
    endloop
  endfacet
  facet normal 0 0 1
    outer loop
      vertex 27.4044 7.71838 3
      vertex 8.19199 7.03004 3
      vertex 8.69998 5.29999 3
    endloop
  endfacet
  facet normal -0 0 1
    outer loop
      vertex 6.82932 8.2108 3
      vertex 27.4044 7.71838 3
      vertex 6.82932 32.7892 3
    endloop
  endfacet
  facet normal 0 0 1
    outer loop
      vertex 27.4044 7.71838 3
      vertex 6.82932 8.2108 3
      vertex 8.19199 7.03004 3
    endloop
  endfacet
  facet normal -0 0 1
    outer loop
      vertex 5.0446 32.5326 3
      vertex 6.82932 8.2108 3
      vertex 6.82932 32.7892 3
    endloop
  endfacet
  facet normal 0 0 1
    outer loop
      vertex 5.0446 32.5326 3
      vertex 5.0446 8.46742 3
      vertex 6.82932 8.2108 3
    endloop
  endfacet
  facet normal 0 0 1
    outer loop
      vertex 3.40443 33.2816 3
      vertex 5.0446 8.46742 3
      vertex 5.0446 32.5326 3
    endloop
  endfacet
  facet normal 0 0 1
    outer loop
      vertex 3.40443 33.2816 3
      vertex 3.40443 7.71838 3
      vertex 5.0446 8.46742 3
    endloop
  endfacet
  facet normal 0 0 1
    outer loop
      vertex 2.42961 34.7985 3
      vertex 3.40443 7.71838 3
      vertex 3.40443 33.2816 3
    endloop
  endfacet
  facet normal 0 0 1
    outer loop
      vertex 3.40443 7.71838 3
      vertex 2.42961 34.7985 3
      vertex 2.42961 6.20152 3
    endloop
  endfacet
  facet normal -0 0 1
    outer loop
      vertex 8.69998 35.7 3
      vertex 26.4296 34.7985 3
      vertex 26.4296 36.6015 3
    endloop
  endfacet
  facet normal 0 0 1
    outer loop
      vertex 8.19199 33.9699 3
      vertex 26.4296 34.7985 3
      vertex 8.69998 35.7 3
    endloop
  endfacet
  facet normal 0 0 1
    outer loop
      vertex 27.4044 33.2816 3
      vertex 6.82932 32.7892 3
      vertex 27.4044 7.71838 3
    endloop
  endfacet
  facet normal -0 0 1
    outer loop
      vertex 8.19199 37.43 3
      vertex 26.4296 36.6015 3
      vertex 27.4044 38.1184 3
    endloop
  endfacet
  facet normal -0 0 1
    outer loop
      vertex 6.82932 38.6108 3
      vertex 27.4044 38.1184 3
      vertex 29.0178 38.8552 3
    endloop
  endfacet
  facet normal 0 0 1
    outer loop
      vertex 26.4296 36.6015 3
      vertex 8.19199 37.43 3
      vertex 8.69998 35.7 3
    endloop
  endfacet
  facet normal 0 0 1
    outer loop
      vertex 27.4044 38.1184 3
      vertex 6.82932 38.6108 3
      vertex 8.19199 37.43 3
    endloop
  endfacet
  facet normal 0 -0 1
    outer loop
      vertex 6.82932 38.6108 3
      vertex 29.0178 38.8552 3
      vertex 5.12982 38.8552 3
    endloop
  endfacet
  facet normal -0 0 1
    outer loop
      vertex 32.192 7.03004 3
      vertex 49.4162 4.13025 3
      vertex 32.192 33.9699 3
    endloop
  endfacet
  facet normal 0 0 1
    outer loop
      vertex 49.4162 4.13025 3
      vertex 32.192 7.03004 3
      vertex 32.7 5.29999 3
    endloop
  endfacet
  facet normal -0 0 1
    outer loop
      vertex 30.8293 32.7892 3
      vertex 32.192 7.03004 3
      vertex 32.192 33.9699 3
    endloop
  endfacet
  facet normal 0 0 1
    outer loop
      vertex 30.8293 32.7892 3
      vertex 30.8293 8.2108 3
      vertex 32.192 7.03004 3
    endloop
  endfacet
  facet normal -0 0 1
    outer loop
      vertex 29.0446 32.5326 3
      vertex 30.8293 8.2108 3
      vertex 30.8293 32.7892 3
    endloop
  endfacet
  facet normal 0 0 1
    outer loop
      vertex 29.0446 32.5326 3
      vertex 29.0446 8.46742 3
      vertex 30.8293 8.2108 3
    endloop
  endfacet
  facet normal 0 0 1
    outer loop
      vertex 27.4044 33.2816 3
      vertex 29.0446 8.46742 3
      vertex 29.0446 32.5326 3
    endloop
  endfacet
  facet normal 0 0 1
    outer loop
      vertex 27.4044 33.2816 3
      vertex 27.4044 7.71838 3
      vertex 29.0446 8.46742 3
    endloop
  endfacet
  facet normal -0 0 1
    outer loop
      vertex 8.19199 33.9699 3
      vertex 27.4044 33.2816 3
      vertex 26.4296 34.7985 3
    endloop
  endfacet
  facet normal 0 0 1
    outer loop
      vertex 6.82932 32.7892 3
      vertex 27.4044 33.2816 3
      vertex 8.19199 33.9699 3
    endloop
  endfacet
  facet normal 0 0 1
    outer loop
      vertex 47.6573 38.8552 3
      vertex 49.4162 36.8698 3
      vertex 49.1871 37.7992 3
    endloop
  endfacet
  facet normal 0 0 1
    outer loop
      vertex 47.6573 38.8552 3
      vertex 32.192 33.9699 3
      vertex 49.4162 36.8698 3
    endloop
  endfacet
  facet normal 0 0 1
    outer loop
      vertex 47.6573 38.8552 3
      vertex 49.1871 37.7992 3
      vertex 48.5524 38.5157 3
    endloop
  endfacet
  facet normal 0 0 1
    outer loop
      vertex 49.4162 36.8698 3
      vertex 32.192 33.9699 3
      vertex 49.4162 4.13025 3
    endloop
  endfacet
  facet normal 0 0 1
    outer loop
      vertex 32.192 33.9699 3
      vertex 47.6573 38.8552 3
      vertex 32.7 35.7 3
    endloop
  endfacet
  facet normal 0 -0 1
    outer loop
      vertex 47.6573 2.14484 3
      vertex 49.4162 4.13025 3
      vertex 32.7 5.29999 3
    endloop
  endfacet
  facet normal 0 0 1
    outer loop
      vertex 49.4162 4.13025 3
      vertex 47.6573 2.14484 3
      vertex 49.1871 3.20081 3
    endloop
  endfacet
  facet normal 0 0 1
    outer loop
      vertex 47.6573 38.8552 3
      vertex 32.192 37.43 3
      vertex 32.7 35.7 3
    endloop
  endfacet
  facet normal 0 0 1
    outer loop
      vertex 47.6573 38.8552 3
      vertex 30.8293 38.6108 3
      vertex 32.192 37.43 3
    endloop
  endfacet
  facet normal 0 -0 1
    outer loop
      vertex 30.8293 38.6108 3
      vertex 47.6573 38.8552 3
      vertex 29.1298 38.8552 3
    endloop
  endfacet
  facet normal 0 0 1
    outer loop
      vertex 49.1871 3.20081 3
      vertex 47.6573 2.14484 3
      vertex 48.5524 2.48428 3
    endloop
  endfacet
  facet normal -0 0 1
    outer loop
      vertex 32.192 3.56995 3
      vertex 47.6573 2.14484 3
      vertex 32.7 5.29999 3
    endloop
  endfacet
  facet normal -0 0 1
    outer loop
      vertex 30.8293 2.38918 3
      vertex 47.6573 2.14484 3
      vertex 32.192 3.56995 3
    endloop
  endfacet
  facet normal 0 0 1
    outer loop
      vertex 47.6573 2.14484 3
      vertex 30.8293 2.38918 3
      vertex 29.1299 2.14484 3
    endloop
  endfacet
  facet normal 0 0 1
    outer loop
      vertex 26.4296 6.20152 3
      vertex 8.69998 5.29999 3
      vertex 26.4296 4.39847 3
    endloop
  endfacet
  facet normal 0 0 1
    outer loop
      vertex 8.19199 3.56995 3
      vertex 26.4296 4.39847 3
      vertex 8.69998 5.29999 3
    endloop
  endfacet
  facet normal 0 0 1
    outer loop
      vertex 26.4296 4.39847 3
      vertex 8.19199 3.56995 3
      vertex 27.4044 2.88159 3
    endloop
  endfacet
  facet normal 0 0 1
    outer loop
      vertex 6.82932 2.38918 3
      vertex 27.4044 2.88159 3
      vertex 8.19199 3.56995 3
    endloop
  endfacet
  facet normal 0 0 1
    outer loop
      vertex 27.4044 2.88159 3
      vertex 6.82932 2.38918 3
      vertex 29.0177 2.14484 3
    endloop
  endfacet
  facet normal 0 0 1
    outer loop
      vertex 29.0177 2.14484 3
      vertex 6.82932 2.38918 3
      vertex 5.12993 2.14484 3
    endloop
  endfacet
  facet normal 0 0 1
    outer loop
      vertex 3.40443 2.88159 3
      vertex 4.49918 2.14484 3
      vertex 5.01774 2.14484 3
    endloop
  endfacet
  facet normal 0 0 1
    outer loop
      vertex 4.49918 2.14484 3
      vertex 3.40443 2.88159 3
      vertex 3.54892 2.26022 3
    endloop
  endfacet
  facet normal 0 0 1
    outer loop
      vertex 3.40443 2.88159 3
      vertex 2.76111 2.80402 3
      vertex 3.54892 2.26022 3
    endloop
  endfacet
  facet normal -0 0 1
    outer loop
      vertex 2.31624 3.65163 3
      vertex 3.40443 2.88159 3
      vertex 2.42961 4.39847 3
    endloop
  endfacet
  facet normal 0 0 1
    outer loop
      vertex 3.40443 2.88159 3
      vertex 2.31624 3.65163 3
      vertex 2.76111 2.80402 3
    endloop
  endfacet
  facet normal 0 0 1
    outer loop
      vertex 2.42961 6.20152 3
      vertex 2.31624 3.65163 3
      vertex 2.42961 4.39847 3
    endloop
  endfacet
  facet normal 0.748512 -0.663121 0
    outer loop
      vertex 48.5524 2.48428 3
      vertex 49.1871 3.20081 2
      vertex 49.1871 3.20081 3
    endloop
  endfacet
  facet normal 0.748512 -0.663121 0
    outer loop
      vertex 49.1871 3.20081 2
      vertex 48.5524 2.48428 3
      vertex 48.5524 2.48428 2
    endloop
  endfacet
  facet normal 0.97094 -0.239324 0
    outer loop
      vertex 49.1871 3.20081 3
      vertex 49.4162 4.13025 2
      vertex 49.4162 4.13025 3
    endloop
  endfacet
  facet normal 0.97094 -0.239324 0
    outer loop
      vertex 49.4162 4.13025 2
      vertex 49.1871 3.20081 3
      vertex 49.1871 3.20081 2
    endloop
  endfacet
  facet normal 1 -0 0
    outer loop
      vertex 49.4162 4.13025 3
      vertex 49.4162 36.8698 2
      vertex 49.4162 36.8698 3
    endloop
  endfacet
  facet normal 1 0 0
    outer loop
      vertex 49.4162 36.8698 2
      vertex 49.4162 4.13025 3
      vertex 49.4162 4.13025 2
    endloop
  endfacet
  facet normal 0.97094 0.239324 0
    outer loop
      vertex 49.4162 36.8698 3
      vertex 49.1871 37.7992 2
      vertex 49.1871 37.7992 3
    endloop
  endfacet
  facet normal 0.97094 0.239324 0
    outer loop
      vertex 49.1871 37.7992 2
      vertex 49.4162 36.8698 3
      vertex 49.4162 36.8698 2
    endloop
  endfacet
  facet normal 0.748512 0.663121 0
    outer loop
      vertex 49.1871 37.7992 3
      vertex 48.5524 38.5157 2
      vertex 48.5524 38.5157 3
    endloop
  endfacet
  facet normal 0.748512 0.663121 0
    outer loop
      vertex 48.5524 38.5157 2
      vertex 49.1871 37.7992 3
      vertex 49.1871 37.7992 2
    endloop
  endfacet
  facet normal 0.354599 0.935018 -0
    outer loop
      vertex 48.5524 38.5157 2
      vertex 47.6573 38.8552 3
      vertex 48.5524 38.5157 3
    endloop
  endfacet
  facet normal 0.354599 0.935018 0
    outer loop
      vertex 47.6573 38.8552 3
      vertex 48.5524 38.5157 2
      vertex 47.6573 38.8552 2
    endloop
  endfacet
  facet normal 0 1 -0
    outer loop
      vertex 47.6573 38.8552 2
      vertex 29.1298 38.8552 3
      vertex 47.6573 38.8552 3
    endloop
  endfacet
  facet normal 0 1 0
    outer loop
      vertex 29.1298 38.8552 3
      vertex 47.6573 38.8552 2
      vertex 29.1298 38.8552 2
    endloop
  endfacet
  facet normal 0 1 -0
    outer loop
      vertex 5.01777 38.8552 2
      vertex 4.49918 38.8552 3
      vertex 5.01777 38.8552 3
    endloop
  endfacet
  facet normal 0 1 0
    outer loop
      vertex 4.49918 38.8552 3
      vertex 5.01777 38.8552 2
      vertex 4.49918 38.8552 2
    endloop
  endfacet
  facet normal 0 1 -0
    outer loop
      vertex 29.0178 38.8552 2
      vertex 5.12982 38.8552 3
      vertex 29.0178 38.8552 3
    endloop
  endfacet
  facet normal 0 1 0
    outer loop
      vertex 5.12982 38.8552 3
      vertex 29.0178 38.8552 2
      vertex 5.12982 38.8552 2
    endloop
  endfacet
  facet normal -0.120542 0.992708 0
    outer loop
      vertex 4.49918 38.8552 2
      vertex 3.54892 38.7398 3
      vertex 4.49918 38.8552 3
    endloop
  endfacet
  facet normal -0.120542 0.992708 0
    outer loop
      vertex 3.54892 38.7398 3
      vertex 4.49918 38.8552 2
      vertex 3.54892 38.7398 2
    endloop
  endfacet
  facet normal -0.568069 0.822981 0
    outer loop
      vertex 3.54892 38.7398 2
      vertex 2.76111 38.196 3
      vertex 3.54892 38.7398 3
    endloop
  endfacet
  facet normal -0.568069 0.822981 0
    outer loop
      vertex 2.76111 38.196 3
      vertex 3.54892 38.7398 2
      vertex 2.76111 38.196 2
    endloop
  endfacet
  facet normal -0.885452 0.464731 0
    outer loop
      vertex 2.31624 37.3484 2
      vertex 2.76111 38.196 3
      vertex 2.76111 38.196 2
    endloop
  endfacet
  facet normal -0.885452 0.464731 0
    outer loop
      vertex 2.76111 38.196 3
      vertex 2.31624 37.3484 2
      vertex 2.31624 37.3484 3
    endloop
  endfacet
  facet normal -1 0 0
    outer loop
      vertex 2.31624 3.65163 2
      vertex 2.31624 37.3484 3
      vertex 2.31624 37.3484 2
    endloop
  endfacet
  facet normal -1 -0 0
    outer loop
      vertex 2.31624 37.3484 3
      vertex 2.31624 3.65163 2
      vertex 2.31624 3.65163 3
    endloop
  endfacet
  facet normal -0.885452 -0.464731 0
    outer loop
      vertex 2.76111 2.80402 2
      vertex 2.31624 3.65163 3
      vertex 2.31624 3.65163 2
    endloop
  endfacet
  facet normal -0.885452 -0.464731 0
    outer loop
      vertex 2.31624 3.65163 3
      vertex 2.76111 2.80402 2
      vertex 2.76111 2.80402 3
    endloop
  endfacet
  facet normal -0.568069 -0.822981 0
    outer loop
      vertex 2.76111 2.80402 2
      vertex 3.54892 2.26022 3
      vertex 2.76111 2.80402 3
    endloop
  endfacet
  facet normal -0.568069 -0.822981 -0
    outer loop
      vertex 3.54892 2.26022 3
      vertex 2.76111 2.80402 2
      vertex 3.54892 2.26022 2
    endloop
  endfacet
  facet normal -0.120542 -0.992708 0
    outer loop
      vertex 3.54892 2.26022 2
      vertex 4.49918 2.14484 3
      vertex 3.54892 2.26022 3
    endloop
  endfacet
  facet normal -0.120542 -0.992708 -0
    outer loop
      vertex 4.49918 2.14484 3
      vertex 3.54892 2.26022 2
      vertex 4.49918 2.14484 2
    endloop
  endfacet
  facet normal 0 -1 0
    outer loop
      vertex 29.1299 2.14484 2
      vertex 47.6573 2.14484 3
      vertex 29.1299 2.14484 3
    endloop
  endfacet
  facet normal 0 -1 -0
    outer loop
      vertex 47.6573 2.14484 3
      vertex 29.1299 2.14484 2
      vertex 47.6573 2.14484 2
    endloop
  endfacet
  facet normal 0 -1 0
    outer loop
      vertex 4.49918 2.14484 2
      vertex 5.01774 2.14484 3
      vertex 4.49918 2.14484 3
    endloop
  endfacet
  facet normal 0 -1 -0
    outer loop
      vertex 5.01774 2.14484 3
      vertex 4.49918 2.14484 2
      vertex 5.01774 2.14484 2
    endloop
  endfacet
  facet normal 0 -1 0
    outer loop
      vertex 5.12993 2.14484 2
      vertex 29.0177 2.14484 3
      vertex 5.12993 2.14484 3
    endloop
  endfacet
  facet normal 0 -1 -0
    outer loop
      vertex 29.0177 2.14484 3
      vertex 5.12993 2.14484 2
      vertex 29.0177 2.14484 2
    endloop
  endfacet
  facet normal 0.354599 -0.935018 0
    outer loop
      vertex 47.6573 2.14484 2
      vertex 48.5524 2.48428 3
      vertex 47.6573 2.14484 3
    endloop
  endfacet
  facet normal 0.354599 -0.935018 0
    outer loop
      vertex 48.5524 2.48428 3
      vertex 47.6573 2.14484 2
      vertex 48.5524 2.48428 2
    endloop
  endfacet
  facet normal 0 0 1
    outer loop
      vertex 31.1 35.7 7
      vertex 32.7 35.7 7
      vertex 32.192 37.43 7
    endloop
  endfacet
  facet normal 0 0 1
    outer loop
      vertex 32.7 35.7 7
      vertex 31.1 35.7 7
      vertex 32.192 33.9699 7
    endloop
  endfacet
  facet normal 0 0 1
    outer loop
      vertex 32.192 37.43 7
      vertex 30.846 36.565 7
      vertex 31.1 35.7 7
    endloop
  endfacet
  facet normal 0 0 1
    outer loop
      vertex 30.8293 38.6108 7
      vertex 30.846 36.565 7
      vertex 32.192 37.43 7
    endloop
  endfacet
  facet normal 0 0 1
    outer loop
      vertex 30.8293 38.6108 7
      vertex 30.1647 37.1554 7
      vertex 30.846 36.565 7
    endloop
  endfacet
  facet normal 0 0 1
    outer loop
      vertex 30.8293 38.6108 7
      vertex 29.2723 37.2837 7
      vertex 30.1647 37.1554 7
    endloop
  endfacet
  facet normal 0 0 1
    outer loop
      vertex 29.0446 38.8674 7
      vertex 29.2723 37.2837 7
      vertex 30.8293 38.6108 7
    endloop
  endfacet
  facet normal 0 0 1
    outer loop
      vertex 29.0446 38.8674 7
      vertex 28.4522 36.9092 7
      vertex 29.2723 37.2837 7
    endloop
  endfacet
  facet normal -0 0 1
    outer loop
      vertex 27.4044 38.1184 7
      vertex 28.4522 36.9092 7
      vertex 29.0446 38.8674 7
    endloop
  endfacet
  facet normal -0 0 1
    outer loop
      vertex 26.4296 36.6015 7
      vertex 27.9648 36.1508 7
      vertex 27.4044 38.1184 7
    endloop
  endfacet
  facet normal 0 0 1
    outer loop
      vertex 28.4522 36.9092 7
      vertex 27.4044 38.1184 7
      vertex 27.9648 36.1508 7
    endloop
  endfacet
  facet normal -0 0 1
    outer loop
      vertex 30.846 34.835 7
      vertex 32.192 33.9699 7
      vertex 31.1 35.7 7
    endloop
  endfacet
  facet normal 0 0 1
    outer loop
      vertex 30.846 34.835 7
      vertex 30.8293 32.7892 7
      vertex 32.192 33.9699 7
    endloop
  endfacet
  facet normal -0 0 1
    outer loop
      vertex 30.1647 34.2446 7
      vertex 30.8293 32.7892 7
      vertex 30.846 34.835 7
    endloop
  endfacet
  facet normal -0 0 1
    outer loop
      vertex 29.2723 34.1163 7
      vertex 30.8293 32.7892 7
      vertex 30.1647 34.2446 7
    endloop
  endfacet
  facet normal 0 0 1
    outer loop
      vertex 29.2723 34.1163 7
      vertex 29.0446 32.5326 7
      vertex 30.8293 32.7892 7
    endloop
  endfacet
  facet normal 0 0 1
    outer loop
      vertex 28.4522 34.4908 7
      vertex 29.0446 32.5326 7
      vertex 29.2723 34.1163 7
    endloop
  endfacet
  facet normal 0 0 1
    outer loop
      vertex 27.4044 33.2816 7
      vertex 28.4522 34.4908 7
      vertex 27.9648 35.2492 7
    endloop
  endfacet
  facet normal 0 0 1
    outer loop
      vertex 28.4522 34.4908 7
      vertex 27.4044 33.2816 7
      vertex 29.0446 32.5326 7
    endloop
  endfacet
  facet normal 0 0 1
    outer loop
      vertex 27.9648 36.1508 7
      vertex 26.4296 36.6015 7
      vertex 27.9648 35.2492 7
    endloop
  endfacet
  facet normal 0 0 1
    outer loop
      vertex 26.4296 34.7985 7
      vertex 27.9648 35.2492 7
      vertex 26.4296 36.6015 7
    endloop
  endfacet
  facet normal 0 0 1
    outer loop
      vertex 27.9648 35.2492 7
      vertex 26.4296 34.7985 7
      vertex 27.4044 33.2816 7
    endloop
  endfacet
  facet normal 0 0 1
    outer loop
      vertex 7.09999 35.7 7
      vertex 8.69998 35.7 7
      vertex 8.19199 37.43 7
    endloop
  endfacet
  facet normal 0 0 1
    outer loop
      vertex 8.69998 35.7 7
      vertex 7.09999 35.7 7
      vertex 8.19199 33.9699 7
    endloop
  endfacet
  facet normal 0 0 1
    outer loop
      vertex 8.19199 37.43 7
      vertex 6.84599 36.565 7
      vertex 7.09999 35.7 7
    endloop
  endfacet
  facet normal 0 0 1
    outer loop
      vertex 6.82932 38.6108 7
      vertex 6.84599 36.565 7
      vertex 8.19199 37.43 7
    endloop
  endfacet
  facet normal 0 0 1
    outer loop
      vertex 6.82932 38.6108 7
      vertex 6.16466 37.1554 7
      vertex 6.84599 36.565 7
    endloop
  endfacet
  facet normal 0 0 1
    outer loop
      vertex 6.82932 38.6108 7
      vertex 5.27229 37.2837 7
      vertex 6.16466 37.1554 7
    endloop
  endfacet
  facet normal 0 0 1
    outer loop
      vertex 5.0446 38.8674 7
      vertex 5.27229 37.2837 7
      vertex 6.82932 38.6108 7
    endloop
  endfacet
  facet normal 0 0 1
    outer loop
      vertex 5.0446 38.8674 7
      vertex 4.45221 36.9092 7
      vertex 5.27229 37.2837 7
    endloop
  endfacet
  facet normal -0 0 1
    outer loop
      vertex 3.40443 38.1184 7
      vertex 4.45221 36.9092 7
      vertex 5.0446 38.8674 7
    endloop
  endfacet
  facet normal -0 0 1
    outer loop
      vertex 2.42961 36.6015 7
      vertex 3.9648 36.1508 7
      vertex 3.40443 38.1184 7
    endloop
  endfacet
  facet normal 0 0 1
    outer loop
      vertex 4.45221 36.9092 7
      vertex 3.40443 38.1184 7
      vertex 3.9648 36.1508 7
    endloop
  endfacet
  facet normal -0 0 1
    outer loop
      vertex 6.84599 34.835 7
      vertex 8.19199 33.9699 7
      vertex 7.09999 35.7 7
    endloop
  endfacet
  facet normal 0 0 1
    outer loop
      vertex 6.84599 34.835 7
      vertex 6.82932 32.7892 7
      vertex 8.19199 33.9699 7
    endloop
  endfacet
  facet normal -0 0 1
    outer loop
      vertex 6.16466 34.2446 7
      vertex 6.82932 32.7892 7
      vertex 6.84599 34.835 7
    endloop
  endfacet
  facet normal -0 0 1
    outer loop
      vertex 5.27229 34.1163 7
      vertex 6.82932 32.7892 7
      vertex 6.16466 34.2446 7
    endloop
  endfacet
  facet normal 0 0 1
    outer loop
      vertex 5.27229 34.1163 7
      vertex 5.0446 32.5326 7
      vertex 6.82932 32.7892 7
    endloop
  endfacet
  facet normal 0 0 1
    outer loop
      vertex 4.45221 34.4908 7
      vertex 5.0446 32.5326 7
      vertex 5.27229 34.1163 7
    endloop
  endfacet
  facet normal 0 0 1
    outer loop
      vertex 3.40443 33.2816 7
      vertex 4.45221 34.4908 7
      vertex 3.9648 35.2492 7
    endloop
  endfacet
  facet normal 0 0 1
    outer loop
      vertex 4.45221 34.4908 7
      vertex 3.40443 33.2816 7
      vertex 5.0446 32.5326 7
    endloop
  endfacet
  facet normal 0 0 1
    outer loop
      vertex 3.9648 36.1508 7
      vertex 2.42961 36.6015 7
      vertex 3.9648 35.2492 7
    endloop
  endfacet
  facet normal 0 0 1
    outer loop
      vertex 2.42961 34.7985 7
      vertex 3.9648 35.2492 7
      vertex 2.42961 36.6015 7
    endloop
  endfacet
  facet normal 0 0 1
    outer loop
      vertex 3.9648 35.2492 7
      vertex 2.42961 34.7985 7
      vertex 3.40443 33.2816 7
    endloop
  endfacet
  facet normal 0 0 1
    outer loop
      vertex 7.09999 5.29999 7
      vertex 8.69998 5.29999 7
      vertex 8.19199 7.03004 7
    endloop
  endfacet
  facet normal 0 0 1
    outer loop
      vertex 8.69998 5.29999 7
      vertex 7.09999 5.29999 7
      vertex 8.19199 3.56995 7
    endloop
  endfacet
  facet normal 0 0 1
    outer loop
      vertex 8.19199 7.03004 7
      vertex 6.84599 6.16502 7
      vertex 7.09999 5.29999 7
    endloop
  endfacet
  facet normal 0 0 1
    outer loop
      vertex 6.82932 8.2108 7
      vertex 6.84599 6.16502 7
      vertex 8.19199 7.03004 7
    endloop
  endfacet
  facet normal 0 0 1
    outer loop
      vertex 6.82932 8.2108 7
      vertex 6.16466 6.7554 7
      vertex 6.84599 6.16502 7
    endloop
  endfacet
  facet normal 0 0 1
    outer loop
      vertex 6.82932 8.2108 7
      vertex 5.27229 6.88371 7
      vertex 6.16466 6.7554 7
    endloop
  endfacet
  facet normal 0 0 1
    outer loop
      vertex 5.0446 8.46742 7
      vertex 5.27229 6.88371 7
      vertex 6.82932 8.2108 7
    endloop
  endfacet
  facet normal 0 0 1
    outer loop
      vertex 5.0446 8.46742 7
      vertex 4.45221 6.50919 7
      vertex 5.27229 6.88371 7
    endloop
  endfacet
  facet normal -0 0 1
    outer loop
      vertex 3.40443 7.71838 7
      vertex 4.45221 6.50919 7
      vertex 5.0446 8.46742 7
    endloop
  endfacet
  facet normal -0 0 1
    outer loop
      vertex 2.42961 6.20152 7
      vertex 3.9648 5.75076 7
      vertex 3.40443 7.71838 7
    endloop
  endfacet
  facet normal 0 0 1
    outer loop
      vertex 4.45221 6.50919 7
      vertex 3.40443 7.71838 7
      vertex 3.9648 5.75076 7
    endloop
  endfacet
  facet normal -0 0 1
    outer loop
      vertex 6.84599 4.43497 7
      vertex 8.19199 3.56995 7
      vertex 7.09999 5.29999 7
    endloop
  endfacet
  facet normal 0 0 1
    outer loop
      vertex 6.84599 4.43497 7
      vertex 6.82932 2.38918 7
      vertex 8.19199 3.56995 7
    endloop
  endfacet
  facet normal -0 0 1
    outer loop
      vertex 6.16466 3.84457 7
      vertex 6.82932 2.38918 7
      vertex 6.84599 4.43497 7
    endloop
  endfacet
  facet normal -0 0 1
    outer loop
      vertex 5.27229 3.71628 7
      vertex 6.82932 2.38918 7
      vertex 6.16466 3.84457 7
    endloop
  endfacet
  facet normal 0 0 1
    outer loop
      vertex 5.27229 3.71628 7
      vertex 5.0446 2.13257 7
      vertex 6.82932 2.38918 7
    endloop
  endfacet
  facet normal 0 0 1
    outer loop
      vertex 4.45221 4.09079 7
      vertex 5.0446 2.13257 7
      vertex 5.27229 3.71628 7
    endloop
  endfacet
  facet normal 0 0 1
    outer loop
      vertex 3.40443 2.88159 7
      vertex 4.45221 4.09079 7
      vertex 3.9648 4.84923 7
    endloop
  endfacet
  facet normal 0 0 1
    outer loop
      vertex 4.45221 4.09079 7
      vertex 3.40443 2.88159 7
      vertex 5.0446 2.13257 7
    endloop
  endfacet
  facet normal 0 0 1
    outer loop
      vertex 3.9648 5.75076 7
      vertex 2.42961 6.20152 7
      vertex 3.9648 4.84923 7
    endloop
  endfacet
  facet normal 0 0 1
    outer loop
      vertex 2.42961 4.39847 7
      vertex 3.9648 4.84923 7
      vertex 2.42961 6.20152 7
    endloop
  endfacet
  facet normal 0 0 1
    outer loop
      vertex 3.9648 4.84923 7
      vertex 2.42961 4.39847 7
      vertex 3.40443 2.88159 7
    endloop
  endfacet
  facet normal 0 0 1
    outer loop
      vertex 31.1 5.29999 7
      vertex 32.7 5.29999 7
      vertex 32.192 7.03004 7
    endloop
  endfacet
  facet normal 0 0 1
    outer loop
      vertex 32.7 5.29999 7
      vertex 31.1 5.29999 7
      vertex 32.192 3.56995 7
    endloop
  endfacet
  facet normal 0 0 1
    outer loop
      vertex 32.192 7.03004 7
      vertex 30.846 6.16502 7
      vertex 31.1 5.29999 7
    endloop
  endfacet
  facet normal 0 0 1
    outer loop
      vertex 30.8293 8.2108 7
      vertex 30.846 6.16502 7
      vertex 32.192 7.03004 7
    endloop
  endfacet
  facet normal 0 0 1
    outer loop
      vertex 30.8293 8.2108 7
      vertex 30.1647 6.7554 7
      vertex 30.846 6.16502 7
    endloop
  endfacet
  facet normal 0 0 1
    outer loop
      vertex 30.8293 8.2108 7
      vertex 29.2723 6.88371 7
      vertex 30.1647 6.7554 7
    endloop
  endfacet
  facet normal 0 0 1
    outer loop
      vertex 29.0446 8.46742 7
      vertex 29.2723 6.88371 7
      vertex 30.8293 8.2108 7
    endloop
  endfacet
  facet normal 0 0 1
    outer loop
      vertex 29.0446 8.46742 7
      vertex 28.4522 6.50919 7
      vertex 29.2723 6.88371 7
    endloop
  endfacet
  facet normal -0 0 1
    outer loop
      vertex 27.4044 7.71838 7
      vertex 28.4522 6.50919 7
      vertex 29.0446 8.46742 7
    endloop
  endfacet
  facet normal -0 0 1
    outer loop
      vertex 26.4296 6.20152 7
      vertex 27.9648 5.75076 7
      vertex 27.4044 7.71838 7
    endloop
  endfacet
  facet normal 0 0 1
    outer loop
      vertex 28.4522 6.50919 7
      vertex 27.4044 7.71838 7
      vertex 27.9648 5.75076 7
    endloop
  endfacet
  facet normal -0 0 1
    outer loop
      vertex 30.846 4.43497 7
      vertex 32.192 3.56995 7
      vertex 31.1 5.29999 7
    endloop
  endfacet
  facet normal 0 0 1
    outer loop
      vertex 30.846 4.43497 7
      vertex 30.8293 2.38918 7
      vertex 32.192 3.56995 7
    endloop
  endfacet
  facet normal -0 0 1
    outer loop
      vertex 30.1647 3.84457 7
      vertex 30.8293 2.38918 7
      vertex 30.846 4.43497 7
    endloop
  endfacet
  facet normal -0 0 1
    outer loop
      vertex 29.2723 3.71628 7
      vertex 30.8293 2.38918 7
      vertex 30.1647 3.84457 7
    endloop
  endfacet
  facet normal 0 0 1
    outer loop
      vertex 29.2723 3.71628 7
      vertex 29.0446 2.13257 7
      vertex 30.8293 2.38918 7
    endloop
  endfacet
  facet normal 0 0 1
    outer loop
      vertex 28.4522 4.09079 7
      vertex 29.0446 2.13257 7
      vertex 29.2723 3.71628 7
    endloop
  endfacet
  facet normal 0 0 1
    outer loop
      vertex 27.4044 2.88159 7
      vertex 28.4522 4.09079 7
      vertex 27.9648 4.84923 7
    endloop
  endfacet
  facet normal 0 0 1
    outer loop
      vertex 28.4522 4.09079 7
      vertex 27.4044 2.88159 7
      vertex 29.0446 2.13257 7
    endloop
  endfacet
  facet normal 0 0 1
    outer loop
      vertex 27.9648 5.75076 7
      vertex 26.4296 6.20152 7
      vertex 27.9648 4.84923 7
    endloop
  endfacet
  facet normal 0 0 1
    outer loop
      vertex 26.4296 4.39847 7
      vertex 27.9648 4.84923 7
      vertex 26.4296 6.20152 7
    endloop
  endfacet
  facet normal 0 0 1
    outer loop
      vertex 27.9648 4.84923 7
      vertex 26.4296 4.39847 7
      vertex 27.4044 2.88159 7
    endloop
  endfacet
  facet normal 0.654859 -0.755751 0
    outer loop
      vertex 30.8293 32.7892 3
      vertex 32.192 33.9699 7
      vertex 30.8293 32.7892 7
    endloop
  endfacet
  facet normal 0.654859 -0.755751 0
    outer loop
      vertex 32.192 33.9699 7
      vertex 30.8293 32.7892 3
      vertex 32.192 33.9699 3
    endloop
  endfacet
  facet normal 0.959492 -0.281735 0
    outer loop
      vertex 32.192 33.9699 7
      vertex 32.7 35.7 3
      vertex 32.7 35.7 7
    endloop
  endfacet
  facet normal 0.959492 -0.281735 0
    outer loop
      vertex 32.7 35.7 3
      vertex 32.192 33.9699 7
      vertex 32.192 33.9699 3
    endloop
  endfacet
  facet normal 0.959492 0.281737 0
    outer loop
      vertex 32.7 35.7 7
      vertex 32.192 37.43 3
      vertex 32.192 37.43 7
    endloop
  endfacet
  facet normal 0.959492 0.281737 0
    outer loop
      vertex 32.192 37.43 3
      vertex 32.7 35.7 7
      vertex 32.7 35.7 3
    endloop
  endfacet
  facet normal 0.654864 0.755747 -0
    outer loop
      vertex 32.192 37.43 3
      vertex 30.8293 38.6108 7
      vertex 32.192 37.43 7
    endloop
  endfacet
  facet normal 0.654864 0.755747 0
    outer loop
      vertex 30.8293 38.6108 7
      vertex 32.192 37.43 3
      vertex 30.8293 38.6108 3
    endloop
  endfacet
  facet normal 0.142317 0.989821 0
    outer loop
      vertex 29.1298 38.8552 3
      vertex 30.8293 38.6108 7
      vertex 30.8293 38.6108 3
    endloop
  endfacet
  facet normal 0.142317 0.989821 -1.44021e-08
    outer loop
      vertex 30.8293 38.6108 7
      vertex 29.1298 38.8552 3
      vertex 29.0446 38.8674 7
    endloop
  endfacet
  facet normal 0.142318 0.989821 0
    outer loop
      vertex 29.0446 38.8674 2
      vertex 29.1298 38.8552 3
      vertex 29.1298 38.8552 2
    endloop
  endfacet
  facet normal 0.142318 0.989821 0
    outer loop
      vertex 29.1298 38.8552 3
      vertex 29.0446 38.8674 2
      vertex 29.0446 38.8674 7
    endloop
  endfacet
  facet normal -0.415408 0.909635 2.0725e-08
    outer loop
      vertex 29.0446 38.8674 7
      vertex 29.0178 38.8552 3
      vertex 27.4044 38.1184 7
    endloop
  endfacet
  facet normal -0.415405 0.909636 0
    outer loop
      vertex 29.0446 38.8674 2
      vertex 29.0178 38.8552 3
      vertex 29.0446 38.8674 7
    endloop
  endfacet
  facet normal -0.415405 0.909636 0
    outer loop
      vertex 29.0178 38.8552 3
      vertex 29.0446 38.8674 2
      vertex 29.0178 38.8552 2
    endloop
  endfacet
  facet normal -0.415408 0.909635 0
    outer loop
      vertex 27.4044 38.1184 7
      vertex 29.0178 38.8552 3
      vertex 27.4044 38.1184 3
    endloop
  endfacet
  facet normal -0.841257 0.540635 0
    outer loop
      vertex 26.4296 36.6015 3
      vertex 27.4044 38.1184 7
      vertex 27.4044 38.1184 3
    endloop
  endfacet
  facet normal -0.841257 0.540635 0
    outer loop
      vertex 27.4044 38.1184 7
      vertex 26.4296 36.6015 3
      vertex 26.4296 36.6015 7
    endloop
  endfacet
  facet normal -1 0 0
    outer loop
      vertex 26.4296 34.7985 3
      vertex 26.4296 36.6015 7
      vertex 26.4296 36.6015 3
    endloop
  endfacet
  facet normal -1 -0 0
    outer loop
      vertex 26.4296 36.6015 7
      vertex 26.4296 34.7985 3
      vertex 26.4296 34.7985 7
    endloop
  endfacet
  facet normal -0.841255 -0.540639 0
    outer loop
      vertex 27.4044 33.2816 3
      vertex 26.4296 34.7985 7
      vertex 26.4296 34.7985 3
    endloop
  endfacet
  facet normal -0.841255 -0.540639 0
    outer loop
      vertex 26.4296 34.7985 7
      vertex 27.4044 33.2816 3
      vertex 27.4044 33.2816 7
    endloop
  endfacet
  facet normal -0.415415 -0.909632 0
    outer loop
      vertex 27.4044 33.2816 3
      vertex 29.0446 32.5326 7
      vertex 27.4044 33.2816 7
    endloop
  endfacet
  facet normal -0.415415 -0.909632 -0
    outer loop
      vertex 29.0446 32.5326 7
      vertex 27.4044 33.2816 3
      vertex 29.0446 32.5326 3
    endloop
  endfacet
  facet normal 0.142325 -0.98982 0
    outer loop
      vertex 29.0446 32.5326 3
      vertex 30.8293 32.7892 7
      vertex 29.0446 32.5326 7
    endloop
  endfacet
  facet normal 0.142325 -0.98982 0
    outer loop
      vertex 30.8293 32.7892 7
      vertex 29.0446 32.5326 3
      vertex 30.8293 32.7892 3
    endloop
  endfacet
  facet normal 0.654859 -0.755751 0
    outer loop
      vertex 6.82932 32.7892 3
      vertex 8.19199 33.9699 7
      vertex 6.82932 32.7892 7
    endloop
  endfacet
  facet normal 0.654859 -0.755751 0
    outer loop
      vertex 8.19199 33.9699 7
      vertex 6.82932 32.7892 3
      vertex 8.19199 33.9699 3
    endloop
  endfacet
  facet normal 0.959492 -0.281735 0
    outer loop
      vertex 8.19199 33.9699 7
      vertex 8.69998 35.7 3
      vertex 8.69998 35.7 7
    endloop
  endfacet
  facet normal 0.959492 -0.281735 0
    outer loop
      vertex 8.69998 35.7 3
      vertex 8.19199 33.9699 7
      vertex 8.19199 33.9699 3
    endloop
  endfacet
  facet normal 0.959492 0.281737 0
    outer loop
      vertex 8.69998 35.7 7
      vertex 8.19199 37.43 3
      vertex 8.19199 37.43 7
    endloop
  endfacet
  facet normal 0.959492 0.281737 0
    outer loop
      vertex 8.19199 37.43 3
      vertex 8.69998 35.7 7
      vertex 8.69998 35.7 3
    endloop
  endfacet
  facet normal 0.654864 0.755747 -0
    outer loop
      vertex 8.19199 37.43 3
      vertex 6.82932 38.6108 7
      vertex 8.19199 37.43 7
    endloop
  endfacet
  facet normal 0.654864 0.755747 0
    outer loop
      vertex 6.82932 38.6108 7
      vertex 8.19199 37.43 3
      vertex 6.82932 38.6108 3
    endloop
  endfacet
  facet normal 0.142317 0.989821 0
    outer loop
      vertex 5.12982 38.8552 3
      vertex 6.82932 38.6108 7
      vertex 6.82932 38.6108 3
    endloop
  endfacet
  facet normal 0.142317 0.989821 2.56344e-09
    outer loop
      vertex 6.82932 38.6108 7
      vertex 5.12982 38.8552 3
      vertex 5.0446 38.8674 7
    endloop
  endfacet
  facet normal 0.142317 0.989821 0
    outer loop
      vertex 5.0446 38.8674 2
      vertex 5.12982 38.8552 3
      vertex 5.12982 38.8552 2
    endloop
  endfacet
  facet normal 0.142317 0.989821 0
    outer loop
      vertex 5.12982 38.8552 3
      vertex 5.0446 38.8674 2
      vertex 5.0446 38.8674 7
    endloop
  endfacet
  facet normal -0.415408 0.909635 2.0725e-08
    outer loop
      vertex 5.0446 38.8674 7
      vertex 5.01777 38.8552 3
      vertex 3.40443 38.1184 7
    endloop
  endfacet
  facet normal -0.415405 0.909636 0
    outer loop
      vertex 5.0446 38.8674 2
      vertex 5.01777 38.8552 3
      vertex 5.0446 38.8674 7
    endloop
  endfacet
  facet normal -0.415405 0.909636 0
    outer loop
      vertex 5.01777 38.8552 3
      vertex 5.0446 38.8674 2
      vertex 5.01777 38.8552 2
    endloop
  endfacet
  facet normal -0.415408 0.909635 0
    outer loop
      vertex 3.40443 38.1184 7
      vertex 5.01777 38.8552 3
      vertex 3.40443 38.1184 3
    endloop
  endfacet
  facet normal -0.841257 0.540635 0
    outer loop
      vertex 2.42961 36.6015 3
      vertex 3.40443 38.1184 7
      vertex 3.40443 38.1184 3
    endloop
  endfacet
  facet normal -0.841257 0.540635 0
    outer loop
      vertex 3.40443 38.1184 7
      vertex 2.42961 36.6015 3
      vertex 2.42961 36.6015 7
    endloop
  endfacet
  facet normal -1 0 0
    outer loop
      vertex 2.42961 34.7985 3
      vertex 2.42961 36.6015 7
      vertex 2.42961 36.6015 3
    endloop
  endfacet
  facet normal -1 -0 0
    outer loop
      vertex 2.42961 36.6015 7
      vertex 2.42961 34.7985 3
      vertex 2.42961 34.7985 7
    endloop
  endfacet
  facet normal -0.841255 -0.540639 0
    outer loop
      vertex 3.40443 33.2816 3
      vertex 2.42961 34.7985 7
      vertex 2.42961 34.7985 3
    endloop
  endfacet
  facet normal -0.841255 -0.540639 0
    outer loop
      vertex 2.42961 34.7985 7
      vertex 3.40443 33.2816 3
      vertex 3.40443 33.2816 7
    endloop
  endfacet
  facet normal -0.415415 -0.909632 0
    outer loop
      vertex 3.40443 33.2816 3
      vertex 5.0446 32.5326 7
      vertex 3.40443 33.2816 7
    endloop
  endfacet
  facet normal -0.415415 -0.909632 -0
    outer loop
      vertex 5.0446 32.5326 7
      vertex 3.40443 33.2816 3
      vertex 5.0446 32.5326 3
    endloop
  endfacet
  facet normal 0.142325 -0.98982 0
    outer loop
      vertex 5.0446 32.5326 3
      vertex 6.82932 32.7892 7
      vertex 5.0446 32.5326 7
    endloop
  endfacet
  facet normal 0.142325 -0.98982 0
    outer loop
      vertex 6.82932 32.7892 7
      vertex 5.0446 32.5326 3
      vertex 6.82932 32.7892 3
    endloop
  endfacet
  facet normal 0.654864 -0.755747 0
    outer loop
      vertex 6.82932 2.38918 3
      vertex 8.19199 3.56995 7
      vertex 6.82932 2.38918 7
    endloop
  endfacet
  facet normal 0.654864 -0.755747 0
    outer loop
      vertex 8.19199 3.56995 7
      vertex 6.82932 2.38918 3
      vertex 8.19199 3.56995 3
    endloop
  endfacet
  facet normal 0.959492 -0.281737 0
    outer loop
      vertex 8.19199 3.56995 7
      vertex 8.69998 5.29999 3
      vertex 8.69998 5.29999 7
    endloop
  endfacet
  facet normal 0.959492 -0.281737 0
    outer loop
      vertex 8.69998 5.29999 3
      vertex 8.19199 3.56995 7
      vertex 8.19199 3.56995 3
    endloop
  endfacet
  facet normal 0.959492 0.281735 0
    outer loop
      vertex 8.69998 5.29999 7
      vertex 8.19199 7.03004 3
      vertex 8.19199 7.03004 7
    endloop
  endfacet
  facet normal 0.959492 0.281735 0
    outer loop
      vertex 8.19199 7.03004 3
      vertex 8.69998 5.29999 7
      vertex 8.69998 5.29999 3
    endloop
  endfacet
  facet normal 0.654859 0.755751 -0
    outer loop
      vertex 8.19199 7.03004 3
      vertex 6.82932 8.2108 7
      vertex 8.19199 7.03004 7
    endloop
  endfacet
  facet normal 0.654859 0.755751 0
    outer loop
      vertex 6.82932 8.2108 7
      vertex 8.19199 7.03004 3
      vertex 6.82932 8.2108 3
    endloop
  endfacet
  facet normal 0.142325 0.98982 -0
    outer loop
      vertex 6.82932 8.2108 3
      vertex 5.0446 8.46742 7
      vertex 6.82932 8.2108 7
    endloop
  endfacet
  facet normal 0.142325 0.98982 0
    outer loop
      vertex 5.0446 8.46742 7
      vertex 6.82932 8.2108 3
      vertex 5.0446 8.46742 3
    endloop
  endfacet
  facet normal -0.415415 0.909632 0
    outer loop
      vertex 5.0446 8.46742 3
      vertex 3.40443 7.71838 7
      vertex 5.0446 8.46742 7
    endloop
  endfacet
  facet normal -0.415415 0.909632 0
    outer loop
      vertex 3.40443 7.71838 7
      vertex 5.0446 8.46742 3
      vertex 3.40443 7.71838 3
    endloop
  endfacet
  facet normal -0.841255 0.540639 0
    outer loop
      vertex 2.42961 6.20152 3
      vertex 3.40443 7.71838 7
      vertex 3.40443 7.71838 3
    endloop
  endfacet
  facet normal -0.841255 0.540639 0
    outer loop
      vertex 3.40443 7.71838 7
      vertex 2.42961 6.20152 3
      vertex 2.42961 6.20152 7
    endloop
  endfacet
  facet normal -1 0 0
    outer loop
      vertex 2.42961 4.39847 3
      vertex 2.42961 6.20152 7
      vertex 2.42961 6.20152 3
    endloop
  endfacet
  facet normal -1 -0 0
    outer loop
      vertex 2.42961 6.20152 7
      vertex 2.42961 4.39847 3
      vertex 2.42961 4.39847 7
    endloop
  endfacet
  facet normal -0.841257 -0.540635 0
    outer loop
      vertex 3.40443 2.88159 3
      vertex 2.42961 4.39847 7
      vertex 2.42961 4.39847 3
    endloop
  endfacet
  facet normal -0.841257 -0.540635 0
    outer loop
      vertex 2.42961 4.39847 7
      vertex 3.40443 2.88159 3
      vertex 3.40443 2.88159 7
    endloop
  endfacet
  facet normal -0.415408 -0.909635 0
    outer loop
      vertex 3.40443 2.88159 3
      vertex 5.0446 2.13257 7
      vertex 3.40443 2.88159 7
    endloop
  endfacet
  facet normal -0.415408 -0.909635 1.746e-08
    outer loop
      vertex 5.01774 2.14484 3
      vertex 5.0446 2.13257 7
      vertex 3.40443 2.88159 3
    endloop
  endfacet
  facet normal -0.415406 -0.909636 0
    outer loop
      vertex 5.0446 2.13257 2
      vertex 5.01774 2.14484 3
      vertex 5.01774 2.14484 2
    endloop
  endfacet
  facet normal -0.415406 -0.909636 0
    outer loop
      vertex 5.01774 2.14484 3
      vertex 5.0446 2.13257 2
      vertex 5.0446 2.13257 7
    endloop
  endfacet
  facet normal 0.142317 -0.989821 -6.96194e-09
    outer loop
      vertex 5.0446 2.13257 7
      vertex 5.12993 2.14484 3
      vertex 6.82932 2.38918 7
    endloop
  endfacet
  facet normal 0.142317 -0.989821 0
    outer loop
      vertex 5.0446 2.13257 2
      vertex 5.12993 2.14484 3
      vertex 5.0446 2.13257 7
    endloop
  endfacet
  facet normal 0.142317 -0.989821 0
    outer loop
      vertex 5.12993 2.14484 3
      vertex 5.0446 2.13257 2
      vertex 5.12993 2.14484 2
    endloop
  endfacet
  facet normal 0.142317 -0.989821 0
    outer loop
      vertex 6.82932 2.38918 7
      vertex 5.12993 2.14484 3
      vertex 6.82932 2.38918 3
    endloop
  endfacet
  facet normal 0.654864 -0.755747 0
    outer loop
      vertex 30.8293 2.38918 3
      vertex 32.192 3.56995 7
      vertex 30.8293 2.38918 7
    endloop
  endfacet
  facet normal 0.654864 -0.755747 0
    outer loop
      vertex 32.192 3.56995 7
      vertex 30.8293 2.38918 3
      vertex 32.192 3.56995 3
    endloop
  endfacet
  facet normal 0.959492 -0.281737 0
    outer loop
      vertex 32.192 3.56995 7
      vertex 32.7 5.29999 3
      vertex 32.7 5.29999 7
    endloop
  endfacet
  facet normal 0.959492 -0.281737 0
    outer loop
      vertex 32.7 5.29999 3
      vertex 32.192 3.56995 7
      vertex 32.192 3.56995 3
    endloop
  endfacet
  facet normal 0.959492 0.281735 0
    outer loop
      vertex 32.7 5.29999 7
      vertex 32.192 7.03004 3
      vertex 32.192 7.03004 7
    endloop
  endfacet
  facet normal 0.959492 0.281735 0
    outer loop
      vertex 32.192 7.03004 3
      vertex 32.7 5.29999 7
      vertex 32.7 5.29999 3
    endloop
  endfacet
  facet normal 0.654859 0.755751 -0
    outer loop
      vertex 32.192 7.03004 3
      vertex 30.8293 8.2108 7
      vertex 32.192 7.03004 7
    endloop
  endfacet
  facet normal 0.654859 0.755751 0
    outer loop
      vertex 30.8293 8.2108 7
      vertex 32.192 7.03004 3
      vertex 30.8293 8.2108 3
    endloop
  endfacet
  facet normal 0.142325 0.98982 -0
    outer loop
      vertex 30.8293 8.2108 3
      vertex 29.0446 8.46742 7
      vertex 30.8293 8.2108 7
    endloop
  endfacet
  facet normal 0.142325 0.98982 0
    outer loop
      vertex 29.0446 8.46742 7
      vertex 30.8293 8.2108 3
      vertex 29.0446 8.46742 3
    endloop
  endfacet
  facet normal -0.415415 0.909632 0
    outer loop
      vertex 29.0446 8.46742 3
      vertex 27.4044 7.71838 7
      vertex 29.0446 8.46742 7
    endloop
  endfacet
  facet normal -0.415415 0.909632 0
    outer loop
      vertex 27.4044 7.71838 7
      vertex 29.0446 8.46742 3
      vertex 27.4044 7.71838 3
    endloop
  endfacet
  facet normal -0.841255 0.540639 0
    outer loop
      vertex 26.4296 6.20152 3
      vertex 27.4044 7.71838 7
      vertex 27.4044 7.71838 3
    endloop
  endfacet
  facet normal -0.841255 0.540639 0
    outer loop
      vertex 27.4044 7.71838 7
      vertex 26.4296 6.20152 3
      vertex 26.4296 6.20152 7
    endloop
  endfacet
  facet normal -1 0 0
    outer loop
      vertex 26.4296 4.39847 3
      vertex 26.4296 6.20152 7
      vertex 26.4296 6.20152 3
    endloop
  endfacet
  facet normal -1 -0 0
    outer loop
      vertex 26.4296 6.20152 7
      vertex 26.4296 4.39847 3
      vertex 26.4296 4.39847 7
    endloop
  endfacet
  facet normal -0.841257 -0.540635 0
    outer loop
      vertex 27.4044 2.88159 3
      vertex 26.4296 4.39847 7
      vertex 26.4296 4.39847 3
    endloop
  endfacet
  facet normal -0.841257 -0.540635 0
    outer loop
      vertex 26.4296 4.39847 7
      vertex 27.4044 2.88159 3
      vertex 27.4044 2.88159 7
    endloop
  endfacet
  facet normal -0.415408 -0.909635 0
    outer loop
      vertex 27.4044 2.88159 3
      vertex 29.0446 2.13257 7
      vertex 27.4044 2.88159 7
    endloop
  endfacet
  facet normal -0.415408 -0.909635 -8.32301e-08
    outer loop
      vertex 29.0177 2.14484 3
      vertex 29.0446 2.13257 7
      vertex 27.4044 2.88159 3
    endloop
  endfacet
  facet normal -0.415418 -0.909631 0
    outer loop
      vertex 29.0446 2.13257 2
      vertex 29.0177 2.14484 3
      vertex 29.0177 2.14484 2
    endloop
  endfacet
  facet normal -0.415418 -0.909631 0
    outer loop
      vertex 29.0177 2.14484 3
      vertex 29.0446 2.13257 2
      vertex 29.0446 2.13257 7
    endloop
  endfacet
  facet normal 0.142317 -0.989821 1.00036e-08
    outer loop
      vertex 29.0446 2.13257 7
      vertex 29.1299 2.14484 3
      vertex 30.8293 2.38918 7
    endloop
  endfacet
  facet normal 0.142317 -0.989821 0
    outer loop
      vertex 29.0446 2.13257 2
      vertex 29.1299 2.14484 3
      vertex 29.0446 2.13257 7
    endloop
  endfacet
  facet normal 0.142317 -0.989821 0
    outer loop
      vertex 29.1299 2.14484 3
      vertex 29.0446 2.13257 2
      vertex 29.1299 2.14484 2
    endloop
  endfacet
  facet normal 0.142317 -0.989821 0
    outer loop
      vertex 30.8293 2.38918 7
      vertex 29.1299 2.14484 3
      vertex 30.8293 2.38918 3
    endloop
  endfacet
endsolid OpenSCAD_Model
